<?xml version="1.0" encoding="UTF-8"?>
<svg xmlns:xlink="http://www.w3.org/1999/xlink" xmlns="http://www.w3.org/2000/svg" fill-opacity="1" color-rendering="auto" color-interpolation="auto" text-rendering="auto" stroke="black" stroke-linecap="square" width="2520" stroke-miterlimit="10" shape-rendering="auto" stroke-opacity="1" fill="black" stroke-dasharray="none" font-weight="normal" stroke-width="1" height="2018" font-family="'Dialog'" font-style="normal" stroke-linejoin="miter" font-size="12" stroke-dashoffset="0" image-rendering="auto">
<!--Generated by ySVG-->
<defs id="genericDefs"/>
<g>
<defs id="defs1">
<clipPath clipPathUnits="userSpaceOnUse" id="clipPath1">
<path d="M0 0 L2520 0 L2520 2018 L0 2018 L0 0 Z"/>
</clipPath>
<clipPath clipPathUnits="userSpaceOnUse" id="clipPath2">
<path d="M1327 342 L3847 342 L3847 2360 L1327 2360 L1327 342 Z"/>
</clipPath>
</defs>
<g fill="white" transform="translate(-1327,-342)" stroke="white">
<rect x="1327" width="2520" height="2018" y="342" clip-path="url(#clipPath2)" stroke="none"/>
</g>
<g fill="rgb(180,180,180)" stroke-miterlimit="1.45" stroke-width="5.7" transform="matrix(1,0,0,1,-1327,-342)" stroke="rgb(180,180,180)">
<path fill="none" d="M2275.2087 1263.5704 L2406.8455 1118.7701" clip-path="url(#clipPath2)"/>
<path fill="none" d="M2233.2878 1247.2529 L2233.7534 1145.7472" clip-path="url(#clipPath2)"/>
<path fill="none" d="M2295.5405 1315.0938 L2400.4297 1323.6368" clip-path="url(#clipPath2)"/>
<path fill="none" d="M2170.8423 1301.4163 L2076.2424 1288.3525" clip-path="url(#clipPath2)"/>
<path fill="none" d="M2268.4775 1361.7554 L2372.6111 1513.668" clip-path="url(#clipPath2)"/>
<path fill="none" d="M2213.8145 1369.7427 L2170.4338 1504.8263" clip-path="url(#clipPath2)"/>
<path fill="none" d="M2102.2656 1570.573 L1921.7344 1621.427" clip-path="url(#clipPath2)"/>
<path fill="none" d="M1816.3197 1638.6919 L1584.6803 1650.3081" clip-path="url(#clipPath2)"/>
<path fill="none" d="M2101.2371 1545.7585 L1799.7629 1487.2415" clip-path="url(#clipPath2)"/>
<path fill="none" d="M1710.9025 1437.1781 L1657.0975 1377.8219" clip-path="url(#clipPath2)"/>
<path fill="none" d="M1530.1858 1599.2584 L1528.8142 1508.7416" clip-path="url(#clipPath2)"/>
<path fill="none" d="M1482.1794 1426.9056 L1436.8206 1399.0944" clip-path="url(#clipPath2)"/>
<path fill="none" d="M1580.4253 1302.7507 L1501.5747 1234.2493" clip-path="url(#clipPath2)"/>
<path fill="none" d="M1628.7323 1284.8114 L1646.2677 1164.1886" clip-path="url(#clipPath2)"/>
<path fill="none" d="M1969.6266 1287.3324 L1840.3734 1302.6676" clip-path="url(#clipPath2)"/>
<path fill="none" d="M2181.7737 1079.3027 L2068.2263 1051.6973" clip-path="url(#clipPath2)"/>
<path fill="none" d="M1985.9686 1242.0449 L1906.0314 1157.9551" clip-path="url(#clipPath2)"/>
<path fill="none" d="M1996.0386 989.0965 L1955.9614 888.9035" clip-path="url(#clipPath2)"/>
<path fill="none" d="M1913.4899 790.1931 L1851.5101 655.8069" clip-path="url(#clipPath2)"/>
<path fill="none" d="M1957.7469 789.8483 L2037.2531 610.1517" clip-path="url(#clipPath2)"/>
<path fill="none" d="M1802.8384 560.0491 L1743.1616 452.9509" clip-path="url(#clipPath2)"/>
<path fill="none" d="M2233.7454 1038.2529 L2233.2546 934.7471" clip-path="url(#clipPath2)"/>
<path fill="none" d="M2277.7661 851.2542 L2340.2339 809.7458" clip-path="url(#clipPath2)"/>
<path fill="none" d="M2496.1167 1070.7887 L2596.8833 1055.2113" clip-path="url(#clipPath2)"/>
<path fill="none" d="M2502.6892 1350.7638 L2559.3108 1377.2362" clip-path="url(#clipPath2)"/>
<path fill="none" d="M2193.5688 1592.3749 L2337.4312 1724.6251" clip-path="url(#clipPath2)"/>
<path fill="none" d="M2447.4153 1588.2672 L2741.5847 1788.7328" clip-path="url(#clipPath2)"/>
<path fill="none" d="M2839.3259 1825.72 L2978.6741 1843.28" clip-path="url(#clipPath2)"/>
<path fill="none" d="M3047.6653 1901.4142 L3094.3347 2054.5859" clip-path="url(#clipPath2)"/>
<path fill="none" d="M3148.2039 2143.8059 L3263.7961 2258.1941" clip-path="url(#clipPath2)"/>
<path fill="none" d="M2647.0352 993.3341 L2642.9648 919.6659" clip-path="url(#clipPath2)"/>
<path fill="none" d="M2455.8254 1548.0863 L2723.1721 1497.9141" clip-path="url(#clipPath2)"/>
<path fill="none" d="M2456.7388 1558.9819 L2951.2612 1568.0181" clip-path="url(#clipPath2)"/>
<path fill="none" d="M2455.8782 1567.6283 L3031.1218 1672.3717" clip-path="url(#clipPath2)"/>
<path fill="none" d="M2652.0317 1369.1777 L2713.9683 1325.8223" clip-path="url(#clipPath2)"/>
<path fill="none" d="M2696.4805 1073.9886 L2851.5195 1164.0114" clip-path="url(#clipPath2)"/>
<path fill="none" d="M3039.384 1527.6896 L3109.616 1443.3104" clip-path="url(#clipPath2)"/>
<path fill="none" d="M3012.2534 1515.744 L3035.7466 1343.256" clip-path="url(#clipPath2)"/>
<path fill="none" d="M3061.147 1239.4084 L3090.853 1156.5916" clip-path="url(#clipPath2)"/>
<path fill="none" d="M3156.3604 1080.5872 L3266.6396 1021.4128" clip-path="url(#clipPath2)"/>
<path fill="none" d="M3117.3496 1639.85 L3266.6504 1451.15" clip-path="url(#clipPath2)"/>
<path fill="none" d="M3130.1697 1654.4833 L3386.8303 1501.5167" clip-path="url(#clipPath2)"/>
<path fill="none" d="M3135.7061 1667.3267 L3328.2939 1612.6733" clip-path="url(#clipPath2)"/>
<path fill="none" d="M3133.4863 1702.9744 L3185.5137 1725.0256" clip-path="url(#clipPath2)"/>
<path fill="none" d="M3419.084 1634.8953 L3465.916 1679.1047" clip-path="url(#clipPath2)"/>
<path fill="none" d="M3477.1536 1504.6477 L3558.8464 1561.3523" clip-path="url(#clipPath2)"/>
<path fill="none" d="M3483.1357 1454.6294 L3558.8643 1425.3706" clip-path="url(#clipPath2)"/>
<path fill="none" d="M3656.3857 1598.2283 L3729.6143 1606.7717" clip-path="url(#clipPath2)"/>
<path fill="none" d="M3284.5081 1766.923 L3353.4919 1796.077" clip-path="url(#clipPath2)"/>
<path fill="none" d="M3083.4507 1865.5453 L3354.5493 1947.4547" clip-path="url(#clipPath2)"/>
<path fill="none" d="M2889.1963 1078.5836 L2893.8037 1137.4164" clip-path="url(#clipPath2)"/>
<path fill="none" d="M2889.5798 851.7289 L2886.4202 971.2711" clip-path="url(#clipPath2)"/>
<path fill="none" d="M2329.4663 536.7916 L2112.5337 556.2084" clip-path="url(#clipPath2)"/>
<path fill="none" d="M1611.4347 1775.1145 L1560.5653 1697.8855" clip-path="url(#clipPath2)"/>
<path fill="none" d="M1691.8903 1837.2915 L1952.1097 1925.7085" clip-path="url(#clipPath2)"/>
<path fill="none" d="M1692.6851 1073.6868 L1897.3149 876.3133" clip-path="url(#clipPath2)"/>
<path fill="none" d="M1587.5558 1380.075 L1561.4442 1412.925" clip-path="url(#clipPath2)"/>
<path fill="none" d="M1759.4491 1424.7139 L1774.5509 1361.2861" clip-path="url(#clipPath2)"/>
<path fill="none" d="M1808.2976 1259.652 L1847.7024 1168.348" clip-path="url(#clipPath2)"/>
<path fill="none" d="M1916.2094 1093.3079 L1968.7906 1064.6921" clip-path="url(#clipPath2)"/>
<path fill="none" d="M2430.2153 1768.5464 L2732.7847 1811.4536" clip-path="url(#clipPath2)"/>
<path fill="none" d="M3072.2747 1885.5917 L3206.7253 2004.4083" clip-path="url(#clipPath2)"/>
<path fill="none" d="M3295.3738 2016.5737 L3357.6262 1986.4263" clip-path="url(#clipPath2)"/>
<path fill="none" d="M3404.8958 1909.2637 L3404.1042 1870.7363" clip-path="url(#clipPath2)"/>
<path fill="none" d="M3441.1921 1779.1823 L3466.8079 1753.8177" clip-path="url(#clipPath2)"/>
<path fill="none" d="M3538.3264 1673.8318 L3569.6736 1634.1682" clip-path="url(#clipPath2)"/>
<path fill="none" d="M3272.6143 1707.6075 L3342.3857 1636.3925" clip-path="url(#clipPath2)"/>
<path fill="none" d="M3095.2617 1629.4453 L3132.7383 1454.5547" clip-path="url(#clipPath2)"/>
<path fill="none" d="M2954.3286 1551.0769 L2826.6736 1505.9238" clip-path="url(#clipPath2)"/>
<path fill="none" d="M3108.0054 1362.0851 L3078.9946 1329.9149" clip-path="url(#clipPath2)"/>
<path fill="none" d="M3059.1455 1126.0835 L2947.8545 1170.9165" clip-path="url(#clipPath2)"/>
<path fill="none" d="M2854.8542 1223.051 L2801.1458 1262.949" clip-path="url(#clipPath2)"/>
<path fill="none" d="M2762.991 1348.5155 L2771.0088 1434.4823" clip-path="url(#clipPath2)"/>
<path fill="none" d="M2103.6152 590.9716 L2340.3848 750.0284" stroke-width="3" clip-path="url(#clipPath2)"/>
<path fill="none" d="M2435.9294 797.1761 L2589.0706 848.8239" stroke-width="3" clip-path="url(#clipPath2)"/>
</g>
<g fill="rgb(213,62,79)" transform="matrix(1,0,0,1,-1327,-342)" stroke="rgb(213,62,79)">
<circle r="1.7916" clip-path="url(#clipPath2)" cx="2358" cy="1228" stroke="none"/>
</g>
<g fill="rgb(51,51,51)" stroke-miterlimit="1.45" transform="matrix(1,0,0,1,-1327,-342)" stroke-linecap="butt" stroke="rgb(51,51,51)">
<circle fill="none" r="1.7916" clip-path="url(#clipPath2)" cx="2358" cy="1228"/>
</g>
<g fill="rgb(252,141,89)" transform="matrix(1,0,0,1,-1327,-342)" stroke="rgb(252,141,89)">
<circle r="53.7477" clip-path="url(#clipPath2)" cx="2403" cy="1558" stroke="none"/>
</g>
<g stroke-miterlimit="1.45" font-size="24" font-family="sans-serif" transform="matrix(1,0,0,1,-1327,-342)" stroke-linecap="butt">
<text x="2352.5" xml:space="preserve" y="1567.0703" clip-path="url(#clipPath2)" stroke="none">Syracuse</text>
</g>
<g fill="rgb(51,51,51)" stroke-miterlimit="1.45" transform="matrix(1,0,0,1,-1327,-342)" stroke-linecap="butt" stroke="rgb(51,51,51)">
<circle fill="none" r="53.7477" clip-path="url(#clipPath2)" cx="2403" cy="1558"/>
</g>
<g fill="rgb(254,224,139)" transform="matrix(1,0,0,1,-1327,-342)" stroke="rgb(254,224,139)">
<circle r="53.75" clip-path="url(#clipPath2)" cx="2776" cy="1488" stroke="none"/>
</g>
<g stroke-miterlimit="1.45" font-size="24" font-family="sans-serif" transform="matrix(1,0,0,1,-1327,-342)" stroke-linecap="butt">
<text x="2735.5" xml:space="preserve" y="1497.0703" clip-path="url(#clipPath2)" stroke="none">Athens</text>
</g>
<g fill="rgb(51,51,51)" stroke-miterlimit="1.45" transform="matrix(1,0,0,1,-1327,-342)" stroke-linecap="butt" stroke="rgb(51,51,51)">
<circle fill="none" r="53.75" clip-path="url(#clipPath2)" cx="2776" cy="1488"/>
</g>
<g fill="rgb(254,224,139)" transform="matrix(1,0,0,1,-1327,-342)" stroke="rgb(254,224,139)">
<circle r="53.7477" clip-path="url(#clipPath2)" cx="2786" cy="1819" stroke="none"/>
</g>
<g stroke-miterlimit="1.45" font-size="24" font-family="sans-serif" transform="matrix(1,0,0,1,-1327,-342)" stroke-linecap="butt">
<text x="2745.5" xml:space="preserve" y="1828.0703" clip-path="url(#clipPath2)" stroke="none">Cyrene</text>
</g>
<g fill="rgb(51,51,51)" stroke-miterlimit="1.45" transform="matrix(1,0,0,1,-1327,-342)" stroke-linecap="butt" stroke="rgb(51,51,51)">
<circle fill="none" r="53.7477" clip-path="url(#clipPath2)" cx="2786" cy="1819"/>
</g>
<g fill="rgb(254,224,139)" transform="matrix(1,0,0,1,-1327,-342)" stroke="rgb(254,224,139)">
<circle r="53.7477" clip-path="url(#clipPath2)" cx="2608" cy="1400" stroke="none"/>
</g>
<g stroke-miterlimit="1.45" font-size="24" font-family="sans-serif" transform="matrix(1,0,0,1,-1327,-342)" stroke-linecap="butt">
<text x="2563" xml:space="preserve" y="1409.0703" clip-path="url(#clipPath2)" stroke="none">Taranto</text>
</g>
<g fill="rgb(51,51,51)" stroke-miterlimit="1.45" transform="matrix(1,0,0,1,-1327,-342)" stroke-linecap="butt" stroke="rgb(51,51,51)">
<circle fill="none" r="53.7477" clip-path="url(#clipPath2)" cx="2608" cy="1400"/>
</g>
<g fill="rgb(230,245,152)" transform="matrix(1,0,0,1,-1327,-342)" stroke="rgb(230,245,152)">
<circle r="53.7477" clip-path="url(#clipPath2)" cx="3144" cy="1402" stroke="none"/>
</g>
<g stroke-miterlimit="1.45" font-size="24" font-family="sans-serif" transform="matrix(1,0,0,1,-1327,-342)" stroke-linecap="butt">
<text x="3096.5" xml:space="preserve" y="1411.0703" clip-path="url(#clipPath2)" stroke="none">Ephesus</text>
</g>
<g fill="rgb(51,51,51)" stroke-miterlimit="1.45" transform="matrix(1,0,0,1,-1327,-342)" stroke-linecap="butt" stroke="rgb(51,51,51)">
<circle fill="none" r="53.7477" clip-path="url(#clipPath2)" cx="3144" cy="1402"/>
</g>
<g fill="rgb(254,224,139)" transform="matrix(1,0,0,1,-1327,-342)" stroke="rgb(254,224,139)">
<circle r="53.7477" clip-path="url(#clipPath2)" cx="3005" cy="1569" stroke="none"/>
</g>
<g stroke-miterlimit="1.45" font-size="24" font-family="sans-serif" transform="matrix(1,0,0,1,-1327,-342)" stroke-linecap="butt">
<text x="2972.5" xml:space="preserve" y="1578.0703" clip-path="url(#clipPath2)" stroke="none">Delos</text>
</g>
<g fill="rgb(51,51,51)" stroke-miterlimit="1.45" transform="matrix(1,0,0,1,-1327,-342)" stroke-linecap="butt" stroke="rgb(51,51,51)">
<circle fill="none" r="53.7477" clip-path="url(#clipPath2)" cx="3005" cy="1569"/>
</g>
<g fill="rgb(230,245,152)" transform="matrix(1,0,0,1,-1327,-342)" stroke="rgb(230,245,152)">
<circle r="53.7477" clip-path="url(#clipPath2)" cx="3043" cy="1290" stroke="none"/>
</g>
<g stroke-miterlimit="1.45" font-size="24" font-family="sans-serif" transform="matrix(1,0,0,1,-1327,-342)" stroke-linecap="butt">
<text x="2985" xml:space="preserve" y="1299.0703" clip-path="url(#clipPath2)" stroke="none">Pergamon</text>
</g>
<g fill="rgb(51,51,51)" stroke-miterlimit="1.45" transform="matrix(1,0,0,1,-1327,-342)" stroke-linecap="butt" stroke="rgb(51,51,51)">
<circle fill="none" r="53.7477" clip-path="url(#clipPath2)" cx="3043" cy="1290"/>
</g>
<g fill="rgb(230,245,152)" transform="matrix(1,0,0,1,-1327,-342)" stroke="rgb(230,245,152)">
<circle r="53.7477" clip-path="url(#clipPath2)" cx="2758" cy="1295" stroke="none"/>
</g>
<g stroke-miterlimit="1.45" font-size="24" font-family="sans-serif" transform="matrix(1,0,0,1,-1327,-342)" stroke-linecap="butt">
<text x="2718" xml:space="preserve" y="1304.0703" clip-path="url(#clipPath2)" stroke="none">Larissa</text>
</g>
<g fill="rgb(51,51,51)" stroke-miterlimit="1.45" transform="matrix(1,0,0,1,-1327,-342)" stroke-linecap="butt" stroke="rgb(51,51,51)">
<circle fill="none" r="53.7477" clip-path="url(#clipPath2)" cx="2758" cy="1295"/>
</g>
<g fill="rgb(213,62,79)" transform="matrix(1,0,0,1,-1327,-342)" stroke="rgb(213,62,79)">
<circle r="62.7477" clip-path="url(#clipPath2)" cx="2233" cy="1310" stroke="none"/>
</g>
<g stroke-miterlimit="1.45" font-size="24" font-family="sans-serif" transform="matrix(1,0,0,1,-1327,-342)" stroke-linecap="butt">
<text x="2200.5" xml:space="preserve" y="1319.0703" clip-path="url(#clipPath2)" stroke="none">Rome</text>
</g>
<g fill="rgb(51,51,51)" stroke-miterlimit="1.45" transform="matrix(1,0,0,1,-1327,-342)" stroke-linecap="butt" stroke="rgb(51,51,51)">
<circle fill="none" r="62.7477" clip-path="url(#clipPath2)" cx="2233" cy="1310"/>
</g>
<g fill="rgb(252,141,89)" transform="matrix(1,0,0,1,-1327,-342)" stroke="rgb(252,141,89)">
<circle r="53.7477" clip-path="url(#clipPath2)" cx="2454" cy="1328" stroke="none"/>
</g>
<g stroke-miterlimit="1.45" font-size="24" font-family="sans-serif" transform="matrix(1,0,0,1,-1327,-342)" stroke-linecap="butt">
<text x="2414.5" xml:space="preserve" y="1337.0703" clip-path="url(#clipPath2)" stroke="none">Puteoli</text>
</g>
<g fill="rgb(51,51,51)" stroke-miterlimit="1.45" transform="matrix(1,0,0,1,-1327,-342)" stroke-linecap="butt" stroke="rgb(51,51,51)">
<circle fill="none" r="53.7477" clip-path="url(#clipPath2)" cx="2454" cy="1328"/>
</g>
<g fill="rgb(254,224,139)" transform="matrix(1,0,0,1,-1327,-342)" stroke="rgb(254,224,139)">
<circle r="53.7477" clip-path="url(#clipPath2)" cx="2016" cy="1039" stroke="none"/>
</g>
<g stroke-miterlimit="1.45" font-size="24" font-family="sans-serif" transform="matrix(1,0,0,1,-1327,-342)" stroke-linecap="butt">
<text x="1964.5" xml:space="preserve" y="1048.0703" clip-path="url(#clipPath2)" stroke="none">Marseille</text>
</g>
<g fill="rgb(51,51,51)" stroke-miterlimit="1.45" transform="matrix(1,0,0,1,-1327,-342)" stroke-linecap="butt" stroke="rgb(51,51,51)">
<circle fill="none" r="53.7477" clip-path="url(#clipPath2)" cx="2016" cy="1039"/>
</g>
<g fill="rgb(254,224,139)" transform="matrix(1,0,0,1,-1327,-342)" stroke="rgb(254,224,139)">
<circle r="53.7477" clip-path="url(#clipPath2)" cx="1869" cy="1119" stroke="none"/>
</g>
<g stroke-miterlimit="1.45" font-size="24" font-family="sans-serif" transform="matrix(1,0,0,1,-1327,-342)" stroke-linecap="butt">
<text x="1833.5" xml:space="preserve" y="1128.0703" clip-path="url(#clipPath2)" stroke="none">Narbo</text>
</g>
<g fill="rgb(51,51,51)" stroke-miterlimit="1.45" transform="matrix(1,0,0,1,-1327,-342)" stroke-linecap="butt" stroke="rgb(51,51,51)">
<circle fill="none" r="53.7477" clip-path="url(#clipPath2)" cx="1869" cy="1119"/>
</g>
<g fill="rgb(254,224,139)" transform="matrix(1,0,0,1,-1327,-342)" stroke="rgb(254,224,139)">
<circle r="53.7477" clip-path="url(#clipPath2)" cx="1787" cy="1309" stroke="none"/>
</g>
<g stroke-miterlimit="1.45" font-size="24" font-family="sans-serif" transform="matrix(1,0,0,1,-1327,-342)" stroke-linecap="butt">
<text x="1743" xml:space="preserve" y="1318.0703" clip-path="url(#clipPath2)" stroke="none">Tarraco</text>
</g>
<g fill="rgb(51,51,51)" stroke-miterlimit="1.45" transform="matrix(1,0,0,1,-1327,-342)" stroke-linecap="butt" stroke="rgb(51,51,51)">
<circle fill="none" r="53.7477" clip-path="url(#clipPath2)" cx="1787" cy="1309"/>
</g>
<g fill="rgb(254,224,139)" transform="matrix(1,0,0,1,-1327,-342)" stroke="rgb(254,224,139)">
<circle r="53.7477" clip-path="url(#clipPath2)" cx="2233" cy="881" stroke="none"/>
</g>
<g stroke-miterlimit="1.45" font-size="24" font-family="sans-serif" transform="matrix(1,0,0,1,-1327,-342)" stroke-linecap="butt">
<text x="2172.5" xml:space="preserve" y="890.0703" clip-path="url(#clipPath2)" stroke="none">Mediolano</text>
</g>
<g fill="rgb(51,51,51)" stroke-miterlimit="1.45" transform="matrix(1,0,0,1,-1327,-342)" stroke-linecap="butt" stroke="rgb(51,51,51)">
<circle fill="none" r="53.7477" clip-path="url(#clipPath2)" cx="2233" cy="881"/>
</g>
<g fill="rgb(230,245,152)" transform="matrix(1,0,0,1,-1327,-342)" stroke="rgb(230,245,152)">
<circle r="53.7477" clip-path="url(#clipPath2)" cx="2385" cy="780" stroke="none"/>
</g>
<g stroke-miterlimit="1.45" font-size="24" font-family="sans-serif" transform="matrix(1,0,0,1,-1327,-342)" stroke-linecap="butt">
<text x="2324.5" xml:space="preserve" y="789.0703" clip-path="url(#clipPath2)" stroke="none">Tridentum</text>
</g>
<g fill="rgb(51,51,51)" stroke-miterlimit="1.45" transform="matrix(1,0,0,1,-1327,-342)" stroke-linecap="butt" stroke="rgb(51,51,51)">
<circle fill="none" r="53.7477" clip-path="url(#clipPath2)" cx="2385" cy="780"/>
</g>
<g fill="rgb(252,141,89)" transform="matrix(1,0,0,1,-1327,-342)" stroke="rgb(252,141,89)">
<circle r="53.7477" clip-path="url(#clipPath2)" cx="2023" cy="1281" stroke="none"/>
</g>
<g stroke-miterlimit="1.45" font-size="24" font-family="sans-serif" transform="matrix(1,0,0,1,-1327,-342)" stroke-linecap="butt">
<text x="1983.5" xml:space="preserve" y="1290.0703" clip-path="url(#clipPath2)" stroke="none">Caralis</text>
</g>
<g fill="rgb(51,51,51)" stroke-miterlimit="1.45" transform="matrix(1,0,0,1,-1327,-342)" stroke-linecap="butt" stroke="rgb(51,51,51)">
<circle fill="none" r="53.7477" clip-path="url(#clipPath2)" cx="2023" cy="1281"/>
</g>
<g fill="rgb(252,141,89)" transform="matrix(1,0,0,1,-1327,-342)" stroke="rgb(252,141,89)">
<circle r="53.7477" clip-path="url(#clipPath2)" cx="2234" cy="1092" stroke="none"/>
</g>
<g stroke-miterlimit="1.45" font-size="24" font-family="sans-serif" transform="matrix(1,0,0,1,-1327,-342)" stroke-linecap="butt">
<text x="2206" xml:space="preserve" y="1101.0703" clip-path="url(#clipPath2)" stroke="none">Luna</text>
</g>
<g fill="rgb(51,51,51)" stroke-miterlimit="1.45" transform="matrix(1,0,0,1,-1327,-342)" stroke-linecap="butt" stroke="rgb(51,51,51)">
<circle fill="none" r="53.7477" clip-path="url(#clipPath2)" cx="2234" cy="1092"/>
</g>
<g fill="rgb(153,213,148)" transform="matrix(1,0,0,1,-1327,-342)" stroke="rgb(153,213,148)">
<circle r="53.7477" clip-path="url(#clipPath2)" cx="1391" cy="1371" stroke="none"/>
</g>
<g stroke-miterlimit="1.45" font-size="24" font-family="sans-serif" transform="matrix(1,0,0,1,-1327,-342)" stroke-linecap="butt">
<text x="1342" xml:space="preserve" y="1380.0703" clip-path="url(#clipPath2)" stroke="none">Pax Iulia</text>
</g>
<g fill="rgb(51,51,51)" stroke-miterlimit="1.45" transform="matrix(1,0,0,1,-1327,-342)" stroke-linecap="butt" stroke="rgb(51,51,51)">
<circle fill="none" r="53.7477" clip-path="url(#clipPath2)" cx="1391" cy="1371"/>
</g>
<g fill="rgb(230,245,152)" transform="matrix(1,0,0,1,-1327,-342)" stroke="rgb(230,245,152)">
<circle r="53.7477" clip-path="url(#clipPath2)" cx="1528" cy="1455" stroke="none"/>
</g>
<g stroke-miterlimit="1.45" font-size="24" font-family="sans-serif" transform="matrix(1,0,0,1,-1327,-342)" stroke-linecap="butt">
<text x="1482.5" xml:space="preserve" y="1464.0703" clip-path="url(#clipPath2)" stroke="none">Hispalis</text>
</g>
<g fill="rgb(51,51,51)" stroke-miterlimit="1.45" transform="matrix(1,0,0,1,-1327,-342)" stroke-linecap="butt" stroke="rgb(51,51,51)">
<circle fill="none" r="53.7477" clip-path="url(#clipPath2)" cx="1528" cy="1455"/>
</g>
<g fill="rgb(230,245,152)" transform="matrix(1,0,0,1,-1327,-342)" stroke="rgb(230,245,152)">
<circle r="53.7477" clip-path="url(#clipPath2)" cx="1531" cy="1653" stroke="none"/>
</g>
<g stroke-miterlimit="1.45" font-size="24" font-family="sans-serif" transform="matrix(1,0,0,1,-1327,-342)" stroke-linecap="butt">
<text x="1501.5" xml:space="preserve" y="1662.0703" clip-path="url(#clipPath2)" stroke="none">Tingi</text>
</g>
<g fill="rgb(51,51,51)" stroke-miterlimit="1.45" transform="matrix(1,0,0,1,-1327,-342)" stroke-linecap="butt" stroke="rgb(51,51,51)">
<circle fill="none" r="53.7477" clip-path="url(#clipPath2)" cx="1531" cy="1653"/>
</g>
<g fill="rgb(50,136,189)" transform="matrix(1,0,0,1,-1327,-342)" stroke="rgb(50,136,189)">
<circle r="53.7477" clip-path="url(#clipPath2)" cx="2003" cy="1943" stroke="none"/>
</g>
<g stroke-miterlimit="1.45" font-size="24" font-family="sans-serif" transform="matrix(1,0,0,1,-1327,-342)" stroke-linecap="butt">
<text x="1934.5" xml:space="preserve" y="1952.0703" clip-path="url(#clipPath2)" stroke="none">Garamantes</text>
</g>
<g fill="rgb(51,51,51)" stroke-miterlimit="1.45" transform="matrix(1,0,0,1,-1327,-342)" stroke-linecap="butt" stroke="rgb(51,51,51)">
<circle fill="none" r="53.7477" clip-path="url(#clipPath2)" cx="2003" cy="1943"/>
</g>
<g fill="rgb(153,213,148)" transform="matrix(1,0,0,1,-1327,-342)" stroke="rgb(153,213,148)">
<circle r="53.7477" clip-path="url(#clipPath2)" cx="1641" cy="1820" stroke="none"/>
</g>
<g stroke-miterlimit="1.45" font-size="24" font-family="sans-serif" transform="matrix(1,0,0,1,-1327,-342)" stroke-linecap="butt">
<text x="1590.5" xml:space="preserve" y="1829.0703" clip-path="url(#clipPath2)" stroke="none">Volubilis</text>
</g>
<g fill="rgb(51,51,51)" stroke-miterlimit="1.45" transform="matrix(1,0,0,1,-1327,-342)" stroke-linecap="butt" stroke="rgb(51,51,51)">
<circle fill="none" r="53.7477" clip-path="url(#clipPath2)" cx="1641" cy="1820"/>
</g>
<g fill="rgb(153,213,148)" transform="matrix(1,0,0,1,-1327,-342)" stroke="rgb(153,213,148)">
<circle r="53.7477" clip-path="url(#clipPath2)" cx="3505" cy="1716" stroke="none"/>
</g>
<g stroke-miterlimit="1.45" font-size="24" font-family="sans-serif" transform="matrix(1,0,0,1,-1327,-342)" stroke-linecap="butt">
<text x="3446.5" xml:space="preserve" y="1725.0703" clip-path="url(#clipPath2)" stroke="none">Damascus</text>
</g>
<g fill="rgb(51,51,51)" stroke-miterlimit="1.45" transform="matrix(1,0,0,1,-1327,-342)" stroke-linecap="butt" stroke="rgb(51,51,51)">
<circle fill="none" r="53.7477" clip-path="url(#clipPath2)" cx="3505" cy="1716"/>
</g>
<g fill="rgb(254,224,139)" transform="matrix(1,0,0,1,-1327,-342)" stroke="rgb(254,224,139)">
<circle r="53.7477" clip-path="url(#clipPath2)" cx="3084" cy="1682" stroke="none"/>
</g>
<g stroke-miterlimit="1.45" font-size="24" font-family="sans-serif" transform="matrix(1,0,0,1,-1327,-342)" stroke-linecap="butt">
<text x="3041.5" xml:space="preserve" y="1691.0703" clip-path="url(#clipPath2)" stroke="none">Rhodes</text>
</g>
<g fill="rgb(51,51,51)" stroke-miterlimit="1.45" transform="matrix(1,0,0,1,-1327,-342)" stroke-linecap="butt" stroke="rgb(51,51,51)">
<circle fill="none" r="53.7477" clip-path="url(#clipPath2)" cx="3084" cy="1682"/>
</g>
<g fill="rgb(153,213,148)" transform="matrix(1,0,0,1,-1327,-342)" stroke="rgb(153,213,148)">
<circle r="53.7477" clip-path="url(#clipPath2)" cx="3403" cy="1817" stroke="none"/>
</g>
<g stroke-miterlimit="1.45" font-size="24" font-family="sans-serif" transform="matrix(1,0,0,1,-1327,-342)" stroke-linecap="butt">
<text x="3347" xml:space="preserve" y="1826.0703" clip-path="url(#clipPath2)" stroke="none">Jerusalem</text>
</g>
<g fill="rgb(51,51,51)" stroke-miterlimit="1.45" transform="matrix(1,0,0,1,-1327,-342)" stroke-linecap="butt" stroke="rgb(51,51,51)">
<circle fill="none" r="53.7477" clip-path="url(#clipPath2)" cx="3403" cy="1817"/>
</g>
<g fill="rgb(230,245,152)" transform="matrix(1,0,0,1,-1327,-342)" stroke="rgb(230,245,152)">
<circle r="53.7477" clip-path="url(#clipPath2)" cx="3235" cy="1746" stroke="none"/>
</g>
<g stroke-miterlimit="1.45" font-size="24" font-family="sans-serif" transform="matrix(1,0,0,1,-1327,-342)" stroke-linecap="butt">
<text x="3193.5" xml:space="preserve" y="1755.0703" clip-path="url(#clipPath2)" stroke="none">Paphos</text>
</g>
<g fill="rgb(51,51,51)" stroke-miterlimit="1.45" transform="matrix(1,0,0,1,-1327,-342)" stroke-linecap="butt" stroke="rgb(51,51,51)">
<circle fill="none" r="53.7477" clip-path="url(#clipPath2)" cx="3235" cy="1746"/>
</g>
<g fill="rgb(230,245,152)" transform="matrix(1,0,0,1,-1327,-342)" stroke="rgb(230,245,152)">
<circle r="53.7477" clip-path="url(#clipPath2)" cx="3380" cy="1598" stroke="none"/>
</g>
<g stroke-miterlimit="1.45" font-size="24" font-family="sans-serif" transform="matrix(1,0,0,1,-1327,-342)" stroke-linecap="butt">
<text x="3336.5" xml:space="preserve" y="1607.0703" clip-path="url(#clipPath2)" stroke="none">Salamis</text>
</g>
<g fill="rgb(51,51,51)" stroke-miterlimit="1.45" transform="matrix(1,0,0,1,-1327,-342)" stroke-linecap="butt" stroke="rgb(51,51,51)">
<circle fill="none" r="53.7477" clip-path="url(#clipPath2)" cx="3380" cy="1598"/>
</g>
<g fill="rgb(230,245,152)" transform="matrix(1,0,0,1,-1327,-342)" stroke="rgb(230,245,152)">
<circle r="53.7477" clip-path="url(#clipPath2)" cx="3300" cy="1409" stroke="none"/>
</g>
<g stroke-miterlimit="1.45" font-size="24" font-family="sans-serif" transform="matrix(1,0,0,1,-1327,-342)" stroke-linecap="butt">
<text x="3268" xml:space="preserve" y="1418.0703" clip-path="url(#clipPath2)" stroke="none">Perge</text>
</g>
<g fill="rgb(51,51,51)" stroke-miterlimit="1.45" transform="matrix(1,0,0,1,-1327,-342)" stroke-linecap="butt" stroke="rgb(51,51,51)">
<circle fill="none" r="53.7477" clip-path="url(#clipPath2)" cx="3300" cy="1409"/>
</g>
<g fill="rgb(153,213,148)" transform="matrix(1,0,0,1,-1327,-342)" stroke="rgb(153,213,148)">
<circle r="53.7477" clip-path="url(#clipPath2)" cx="1461" cy="1199" stroke="none"/>
</g>
<g stroke-miterlimit="1.45" font-size="24" font-family="sans-serif" transform="matrix(1,0,0,1,-1327,-342)" stroke-linecap="butt">
<text x="1413" xml:space="preserve" y="1208.0703" clip-path="url(#clipPath2)" stroke="none">Toletum</text>
</g>
<g fill="rgb(51,51,51)" stroke-miterlimit="1.45" transform="matrix(1,0,0,1,-1327,-342)" stroke-linecap="butt" stroke="rgb(51,51,51)">
<circle fill="none" r="53.7477" clip-path="url(#clipPath2)" cx="1461" cy="1199"/>
</g>
<g fill="rgb(252,141,89)" transform="matrix(1,0,0,1,-1327,-342)" stroke="rgb(252,141,89)">
<circle r="53.7477" clip-path="url(#clipPath2)" cx="2154" cy="1556" stroke="none"/>
</g>
<g stroke-miterlimit="1.45" font-size="24" font-family="sans-serif" transform="matrix(1,0,0,1,-1327,-342)" stroke-linecap="butt">
<text x="2101.5" xml:space="preserve" y="1565.0703" clip-path="url(#clipPath2)" stroke="none">Carthage</text>
</g>
<g fill="rgb(51,51,51)" stroke-miterlimit="1.45" transform="matrix(1,0,0,1,-1327,-342)" stroke-linecap="butt" stroke="rgb(51,51,51)">
<circle fill="none" r="53.7477" clip-path="url(#clipPath2)" cx="2154" cy="1556"/>
</g>
<g fill="rgb(254,224,139)" transform="matrix(1,0,0,1,-1327,-342)" stroke="rgb(254,224,139)">
<circle r="53.7477" clip-path="url(#clipPath2)" cx="2377" cy="1761" stroke="none"/>
</g>
<g stroke-miterlimit="1.45" font-size="24" font-family="sans-serif" transform="matrix(1,0,0,1,-1327,-342)" stroke-linecap="butt">
<text x="2298.5" xml:space="preserve" y="1770.0703" clip-path="url(#clipPath2)" stroke="none">Lepcis Magna</text>
</g>
<g fill="rgb(51,51,51)" stroke-miterlimit="1.45" transform="matrix(1,0,0,1,-1327,-342)" stroke-linecap="butt" stroke="rgb(51,51,51)">
<circle fill="none" r="53.7477" clip-path="url(#clipPath2)" cx="2377" cy="1761"/>
</g>
<g fill="rgb(254,224,139)" transform="matrix(1,0,0,1,-1327,-342)" stroke="rgb(254,224,139)">
<circle r="53.7477" clip-path="url(#clipPath2)" cx="1747" cy="1477" stroke="none"/>
</g>
<g stroke-miterlimit="1.45" font-size="24" font-family="sans-serif" transform="matrix(1,0,0,1,-1327,-342)" stroke-linecap="butt">
<text x="1660.5" xml:space="preserve" y="1486.0703" clip-path="url(#clipPath2)" stroke="none">Carthago Nova</text>
</g>
<g fill="rgb(51,51,51)" stroke-miterlimit="1.45" transform="matrix(1,0,0,1,-1327,-342)" stroke-linecap="butt" stroke="rgb(51,51,51)">
<circle fill="none" r="53.7477" clip-path="url(#clipPath2)" cx="1747" cy="1477"/>
</g>
<g fill="rgb(230,245,152)" transform="matrix(1,0,0,1,-1327,-342)" stroke="rgb(230,245,152)">
<circle r="53.7477" clip-path="url(#clipPath2)" cx="1621" cy="1338" stroke="none"/>
</g>
<g stroke-miterlimit="1.45" font-size="24" font-family="sans-serif" transform="matrix(1,0,0,1,-1327,-342)" stroke-linecap="butt">
<text x="1571" xml:space="preserve" y="1347.0703" clip-path="url(#clipPath2)" stroke="none">Cordoba</text>
</g>
<g fill="rgb(51,51,51)" stroke-miterlimit="1.45" transform="matrix(1,0,0,1,-1327,-342)" stroke-linecap="butt" stroke="rgb(51,51,51)">
<circle fill="none" r="53.7477" clip-path="url(#clipPath2)" cx="1621" cy="1338"/>
</g>
<g fill="rgb(254,224,139)" transform="matrix(1,0,0,1,-1327,-342)" stroke="rgb(254,224,139)">
<circle r="53.7477" clip-path="url(#clipPath2)" cx="1870" cy="1636" stroke="none"/>
</g>
<g stroke-miterlimit="1.45" font-size="24" font-family="sans-serif" transform="matrix(1,0,0,1,-1327,-342)" stroke-linecap="butt">
<text x="1799.5" xml:space="preserve" y="1645.0703" clip-path="url(#clipPath2)" stroke="none">Iol Caesarea</text>
</g>
<g fill="rgb(51,51,51)" stroke-miterlimit="1.45" transform="matrix(1,0,0,1,-1327,-342)" stroke-linecap="butt" stroke="rgb(51,51,51)">
<circle fill="none" r="53.7477" clip-path="url(#clipPath2)" cx="1870" cy="1636"/>
</g>
<g fill="rgb(153,213,148)" transform="matrix(1,0,0,1,-1327,-342)" stroke="rgb(153,213,148)">
<circle r="53.7477" clip-path="url(#clipPath2)" cx="3110" cy="2106" stroke="none"/>
</g>
<g stroke-miterlimit="1.45" font-size="24" font-family="sans-serif" transform="matrix(1,0,0,1,-1327,-342)" stroke-linecap="butt">
<text x="3068.5" xml:space="preserve" y="2115.0703" clip-path="url(#clipPath2)" stroke="none">Coptos</text>
</g>
<g fill="rgb(51,51,51)" stroke-miterlimit="1.45" transform="matrix(1,0,0,1,-1327,-342)" stroke-linecap="butt" stroke="rgb(51,51,51)">
<circle fill="none" r="53.7477" clip-path="url(#clipPath2)" cx="3110" cy="2106"/>
</g>
<g fill="rgb(153,213,148)" transform="matrix(1,0,0,1,-1327,-342)" stroke="rgb(153,213,148)">
<circle r="53.7477" clip-path="url(#clipPath2)" cx="3406" cy="1963" stroke="none"/>
</g>
<g stroke-miterlimit="1.45" font-size="24" font-family="sans-serif" transform="matrix(1,0,0,1,-1327,-342)" stroke-linecap="butt">
<text x="3377" xml:space="preserve" y="1972.0703" clip-path="url(#clipPath2)" stroke="none">Petra</text>
</g>
<g fill="rgb(51,51,51)" stroke-miterlimit="1.45" transform="matrix(1,0,0,1,-1327,-342)" stroke-linecap="butt" stroke="rgb(51,51,51)">
<circle fill="none" r="53.7477" clip-path="url(#clipPath2)" cx="3406" cy="1963"/>
</g>
<g fill="rgb(230,245,152)" transform="matrix(1,0,0,1,-1327,-342)" stroke="rgb(230,245,152)">
<circle r="53.7477" clip-path="url(#clipPath2)" cx="3032" cy="1850" stroke="none"/>
</g>
<g stroke-miterlimit="1.45" font-size="24" font-family="sans-serif" transform="matrix(1,0,0,1,-1327,-342)" stroke-linecap="butt">
<text x="2969.5" xml:space="preserve" y="1859.0703" clip-path="url(#clipPath2)" stroke="none">Alexandria</text>
</g>
<g fill="rgb(51,51,51)" stroke-miterlimit="1.45" transform="matrix(1,0,0,1,-1327,-342)" stroke-linecap="butt" stroke="rgb(51,51,51)">
<circle fill="none" r="53.7477" clip-path="url(#clipPath2)" cx="3032" cy="1850"/>
</g>
<g fill="rgb(50,136,189)" transform="matrix(1,0,0,1,-1327,-342)" stroke="rgb(50,136,189)">
<circle r="53.7477" clip-path="url(#clipPath2)" cx="3302" cy="2296" stroke="none"/>
</g>
<g stroke-miterlimit="1.45" font-size="24" font-family="sans-serif" transform="matrix(1,0,0,1,-1327,-342)" stroke-linecap="butt">
<text x="3253.5" xml:space="preserve" y="2305.0703" clip-path="url(#clipPath2)" stroke="none">Berenice</text>
</g>
<g fill="rgb(51,51,51)" stroke-miterlimit="1.45" transform="matrix(1,0,0,1,-1327,-342)" stroke-linecap="butt" stroke="rgb(51,51,51)">
<circle fill="none" r="53.7477" clip-path="url(#clipPath2)" cx="3302" cy="2296"/>
</g>
<g fill="rgb(153,213,148)" transform="matrix(1,0,0,1,-1327,-342)" stroke="rgb(153,213,148)">
<circle r="53.7477" clip-path="url(#clipPath2)" cx="3247" cy="2040" stroke="none"/>
</g>
<g stroke-miterlimit="1.45" font-size="24" font-family="sans-serif" transform="matrix(1,0,0,1,-1327,-342)" stroke-linecap="butt">
<text x="3194.5" xml:space="preserve" y="2049.0703" clip-path="url(#clipPath2)" stroke="none">Memphis</text>
</g>
<g fill="rgb(51,51,51)" stroke-miterlimit="1.45" transform="matrix(1,0,0,1,-1327,-342)" stroke-linecap="butt" stroke="rgb(51,51,51)">
<circle fill="none" r="53.7477" clip-path="url(#clipPath2)" cx="3247" cy="2040"/>
</g>
<g fill="rgb(153,213,148)" transform="matrix(1,0,0,1,-1327,-342)" stroke="rgb(153,213,148)">
<circle r="53.7477" clip-path="url(#clipPath2)" cx="3603" cy="1592" stroke="none"/>
</g>
<g stroke-miterlimit="1.45" font-size="24" font-family="sans-serif" transform="matrix(1,0,0,1,-1327,-342)" stroke-linecap="butt">
<text x="3557.5" xml:space="preserve" y="1601.0703" clip-path="url(#clipPath2)" stroke="none">Palmyra</text>
</g>
<g fill="rgb(51,51,51)" stroke-miterlimit="1.45" transform="matrix(1,0,0,1,-1327,-342)" stroke-linecap="butt" stroke="rgb(51,51,51)">
<circle fill="none" r="53.7477" clip-path="url(#clipPath2)" cx="3603" cy="1592"/>
</g>
<g fill="rgb(153,213,148)" transform="matrix(1,0,0,1,-1327,-342)" stroke="rgb(153,213,148)">
<circle r="53.7477" clip-path="url(#clipPath2)" cx="3609" cy="1406" stroke="none"/>
</g>
<g stroke-miterlimit="1.45" font-size="24" font-family="sans-serif" transform="matrix(1,0,0,1,-1327,-342)" stroke-linecap="butt">
<text x="3570" xml:space="preserve" y="1415.0703" clip-path="url(#clipPath2)" stroke="none">Edessa</text>
</g>
<g fill="rgb(51,51,51)" stroke-miterlimit="1.45" transform="matrix(1,0,0,1,-1327,-342)" stroke-linecap="butt" stroke="rgb(51,51,51)">
<circle fill="none" r="53.7477" clip-path="url(#clipPath2)" cx="3609" cy="1406"/>
</g>
<g fill="rgb(230,245,152)" transform="matrix(1,0,0,1,-1327,-342)" stroke="rgb(230,245,152)">
<circle r="53.7477" clip-path="url(#clipPath2)" cx="3433" cy="1474" stroke="none"/>
</g>
<g stroke-miterlimit="1.45" font-size="24" font-family="sans-serif" transform="matrix(1,0,0,1,-1327,-342)" stroke-linecap="butt">
<text x="3388" xml:space="preserve" y="1483.0703" clip-path="url(#clipPath2)" stroke="none">Antioch</text>
</g>
<g fill="rgb(51,51,51)" stroke-miterlimit="1.45" transform="matrix(1,0,0,1,-1327,-342)" stroke-linecap="butt" stroke="rgb(51,51,51)">
<circle fill="none" r="53.7477" clip-path="url(#clipPath2)" cx="3433" cy="1474"/>
</g>
<g fill="rgb(50,136,189)" transform="matrix(1,0,0,1,-1327,-342)" stroke="rgb(50,136,189)">
<circle r="53.7477" clip-path="url(#clipPath2)" cx="3783" cy="1613" stroke="none"/>
</g>
<g stroke-miterlimit="1.45" font-size="24" font-family="sans-serif" transform="matrix(1,0,0,1,-1327,-342)" stroke-linecap="butt">
<text x="3743" xml:space="preserve" y="1622.0703" clip-path="url(#clipPath2)" stroke="none">Parthia</text>
</g>
<g fill="rgb(51,51,51)" stroke-miterlimit="1.45" transform="matrix(1,0,0,1,-1327,-342)" stroke-linecap="butt" stroke="rgb(51,51,51)">
<circle fill="none" r="53.7477" clip-path="url(#clipPath2)" cx="3783" cy="1613"/>
</g>
<g fill="rgb(153,213,148)" transform="matrix(1,0,0,1,-1327,-342)" stroke="rgb(153,213,148)">
<circle r="53.7477" clip-path="url(#clipPath2)" cx="1829" cy="607" stroke="none"/>
</g>
<g stroke-miterlimit="1.45" font-size="24" font-family="sans-serif" transform="matrix(1,0,0,1,-1327,-342)" stroke-linecap="butt">
<text x="1767" xml:space="preserve" y="616.0703" clip-path="url(#clipPath2)" stroke="none">Londinium</text>
</g>
<g fill="rgb(51,51,51)" stroke-miterlimit="1.45" transform="matrix(1,0,0,1,-1327,-342)" stroke-linecap="butt" stroke="rgb(51,51,51)">
<circle fill="none" r="53.7477" clip-path="url(#clipPath2)" cx="1829" cy="607"/>
</g>
<g fill="rgb(153,213,148)" transform="matrix(1,0,0,1,-1327,-342)" stroke="rgb(153,213,148)">
<circle r="53.7477" clip-path="url(#clipPath2)" cx="1654" cy="1111" stroke="none"/>
</g>
<g stroke-miterlimit="1.45" font-size="24" font-family="sans-serif" transform="matrix(1,0,0,1,-1327,-342)" stroke-linecap="butt">
<text x="1520" xml:space="preserve" y="1120.0703" clip-path="url(#clipPath2)" stroke="none">Colonia Clunia Sulpicia</text>
</g>
<g fill="rgb(51,51,51)" stroke-miterlimit="1.45" transform="matrix(1,0,0,1,-1327,-342)" stroke-linecap="butt" stroke="rgb(51,51,51)">
<circle fill="none" r="53.7477" clip-path="url(#clipPath2)" cx="1654" cy="1111"/>
</g>
<g fill="rgb(153,213,148)" transform="matrix(1,0,0,1,-1327,-342)" stroke="rgb(153,213,148)">
<circle r="53.7477" clip-path="url(#clipPath2)" cx="2059" cy="561" stroke="none"/>
</g>
<g stroke-miterlimit="1.45" font-size="24" font-family="sans-serif" transform="matrix(1,0,0,1,-1327,-342)" stroke-linecap="butt">
<text x="1912" xml:space="preserve" y="570.0703" clip-path="url(#clipPath2)" stroke="none">Lugdunum Cananefatium</text>
</g>
<g fill="rgb(51,51,51)" stroke-miterlimit="1.45" transform="matrix(1,0,0,1,-1327,-342)" stroke-linecap="butt" stroke="rgb(51,51,51)">
<circle fill="none" r="53.7477" clip-path="url(#clipPath2)" cx="2059" cy="561"/>
</g>
<g fill="rgb(230,245,152)" transform="matrix(1,0,0,1,-1327,-342)" stroke="rgb(230,245,152)">
<circle r="53.7477" clip-path="url(#clipPath2)" cx="1936" cy="839" stroke="none"/>
</g>
<g stroke-miterlimit="1.45" font-size="24" font-family="sans-serif" transform="matrix(1,0,0,1,-1327,-342)" stroke-linecap="butt">
<text x="1873.5" xml:space="preserve" y="848.0703" clip-path="url(#clipPath2)" stroke="none">Lugdunum</text>
</g>
<g fill="rgb(51,51,51)" stroke-miterlimit="1.45" transform="matrix(1,0,0,1,-1327,-342)" stroke-linecap="butt" stroke="rgb(51,51,51)">
<circle fill="none" r="53.7477" clip-path="url(#clipPath2)" cx="1936" cy="839"/>
</g>
<g fill="rgb(50,136,189)" transform="matrix(1,0,0,1,-1327,-342)" stroke="rgb(50,136,189)">
<circle r="53.7477" clip-path="url(#clipPath2)" cx="1717" cy="406" stroke="none"/>
</g>
<g stroke-miterlimit="1.45" font-size="24" font-family="sans-serif" transform="matrix(1,0,0,1,-1327,-342)" stroke-linecap="butt">
<text x="1659.5" xml:space="preserve" y="415.0703" clip-path="url(#clipPath2)" stroke="none">Eburacum</text>
</g>
<g fill="rgb(51,51,51)" stroke-miterlimit="1.45" transform="matrix(1,0,0,1,-1327,-342)" stroke-linecap="butt" stroke="rgb(51,51,51)">
<circle fill="none" r="53.7477" clip-path="url(#clipPath2)" cx="1717" cy="406"/>
</g>
<g fill="rgb(50,136,189)" transform="matrix(1,0,0,1,-1327,-342)" stroke="rgb(50,136,189)">
<circle r="53.7477" clip-path="url(#clipPath2)" cx="2383" cy="532" stroke="none"/>
</g>
<g stroke-miterlimit="1.45" font-size="24" font-family="sans-serif" transform="matrix(1,0,0,1,-1327,-342)" stroke-linecap="butt">
<text x="2331.5" xml:space="preserve" y="541.0703" clip-path="url(#clipPath2)" stroke="none">Germany</text>
</g>
<g fill="rgb(51,51,51)" stroke-miterlimit="1.45" transform="matrix(1,0,0,1,-1327,-342)" stroke-linecap="butt" stroke="rgb(51,51,51)">
<circle fill="none" r="53.7477" clip-path="url(#clipPath2)" cx="2383" cy="532"/>
</g>
<g fill="rgb(153,213,148)" transform="matrix(1,0,0,1,-1327,-342)" stroke="rgb(153,213,148)">
<circle r="53.7477" clip-path="url(#clipPath2)" cx="3109" cy="1106" stroke="none"/>
</g>
<g stroke-miterlimit="1.45" font-size="24" font-family="sans-serif" transform="matrix(1,0,0,1,-1327,-342)" stroke-linecap="butt">
<text x="3020.5" xml:space="preserve" y="1115.0703" clip-path="url(#clipPath2)" stroke="none">Constantinople</text>
</g>
<g fill="rgb(51,51,51)" stroke-miterlimit="1.45" transform="matrix(1,0,0,1,-1327,-342)" stroke-linecap="butt" stroke="rgb(51,51,51)">
<circle fill="none" r="53.7477" clip-path="url(#clipPath2)" cx="3109" cy="1106"/>
</g>
<g fill="rgb(153,213,148)" transform="matrix(1,0,0,1,-1327,-342)" stroke="rgb(153,213,148)">
<circle r="53.7477" clip-path="url(#clipPath2)" cx="2885" cy="1025" stroke="none"/>
</g>
<g stroke-miterlimit="1.45" font-size="24" font-family="sans-serif" transform="matrix(1,0,0,1,-1327,-342)" stroke-linecap="butt">
<text x="2843.5" xml:space="preserve" y="1034.0703" clip-path="url(#clipPath2)" stroke="none">Serdica</text>
</g>
<g fill="rgb(51,51,51)" stroke-miterlimit="1.45" transform="matrix(1,0,0,1,-1327,-342)" stroke-linecap="butt" stroke="rgb(51,51,51)">
<circle fill="none" r="53.7477" clip-path="url(#clipPath2)" cx="2885" cy="1025"/>
</g>
<g fill="rgb(230,245,152)" transform="matrix(1,0,0,1,-1327,-342)" stroke="rgb(230,245,152)">
<circle r="53.7477" clip-path="url(#clipPath2)" cx="2898" cy="1191" stroke="none"/>
</g>
<g stroke-miterlimit="1.45" font-size="24" font-family="sans-serif" transform="matrix(1,0,0,1,-1327,-342)" stroke-linecap="butt">
<text x="2823.5" xml:space="preserve" y="1200.0703" clip-path="url(#clipPath2)" stroke="none">Thessalonica</text>
</g>
<g fill="rgb(51,51,51)" stroke-miterlimit="1.45" transform="matrix(1,0,0,1,-1327,-342)" stroke-linecap="butt" stroke="rgb(51,51,51)">
<circle fill="none" r="53.7477" clip-path="url(#clipPath2)" cx="2898" cy="1191"/>
</g>
<g fill="rgb(50,136,189)" transform="matrix(1,0,0,1,-1327,-342)" stroke="rgb(50,136,189)">
<circle r="53.7477" clip-path="url(#clipPath2)" cx="3314" cy="996" stroke="none"/>
</g>
<g stroke-miterlimit="1.45" font-size="24" font-family="sans-serif" transform="matrix(1,0,0,1,-1327,-342)" stroke-linecap="butt">
<text x="3239.5" xml:space="preserve" y="1005.0703" clip-path="url(#clipPath2)" stroke="none">Chersonesos</text>
</g>
<g fill="rgb(51,51,51)" stroke-miterlimit="1.45" transform="matrix(1,0,0,1,-1327,-342)" stroke-linecap="butt" stroke="rgb(51,51,51)">
<circle fill="none" r="53.7477" clip-path="url(#clipPath2)" cx="3314" cy="996"/>
</g>
<g fill="rgb(252,141,89)" transform="matrix(1,0,0,1,-1327,-342)" stroke="rgb(252,141,89)">
<circle r="53.7477" clip-path="url(#clipPath2)" cx="2443" cy="1079" stroke="none"/>
</g>
<g stroke-miterlimit="1.45" font-size="24" font-family="sans-serif" transform="matrix(1,0,0,1,-1327,-342)" stroke-linecap="butt">
<text x="2406.5" xml:space="preserve" y="1088.0703" clip-path="url(#clipPath2)" stroke="none">Rimini</text>
</g>
<g fill="rgb(51,51,51)" stroke-miterlimit="1.45" transform="matrix(1,0,0,1,-1327,-342)" stroke-linecap="butt" stroke="rgb(51,51,51)">
<circle fill="none" r="53.7477" clip-path="url(#clipPath2)" cx="2443" cy="1079"/>
</g>
<g fill="rgb(254,224,139)" transform="matrix(1,0,0,1,-1327,-342)" stroke="rgb(254,224,139)">
<circle r="53.7477" clip-path="url(#clipPath2)" cx="2650" cy="1047" stroke="none"/>
</g>
<g stroke-miterlimit="1.45" font-size="24" font-family="sans-serif" transform="matrix(1,0,0,1,-1327,-342)" stroke-linecap="butt">
<text x="2612" xml:space="preserve" y="1056.0703" clip-path="url(#clipPath2)" stroke="none">Salona</text>
</g>
<g fill="rgb(51,51,51)" stroke-miterlimit="1.45" transform="matrix(1,0,0,1,-1327,-342)" stroke-linecap="butt" stroke="rgb(51,51,51)">
<circle fill="none" r="53.7477" clip-path="url(#clipPath2)" cx="2650" cy="1047"/>
</g>
<g fill="rgb(230,245,152)" transform="matrix(1,0,0,1,-1327,-342)" stroke="rgb(230,245,152)">
<circle r="53.7477" clip-path="url(#clipPath2)" cx="2640" cy="866" stroke="none"/>
</g>
<g stroke-miterlimit="1.45" font-size="24" font-family="sans-serif" transform="matrix(1,0,0,1,-1327,-342)" stroke-linecap="butt">
<text x="2574.5" xml:space="preserve" y="875.0703" clip-path="url(#clipPath2)" stroke="none">Carnuntum</text>
</g>
<g fill="rgb(51,51,51)" stroke-miterlimit="1.45" transform="matrix(1,0,0,1,-1327,-342)" stroke-linecap="butt" stroke="rgb(51,51,51)">
<circle fill="none" r="53.7477" clip-path="url(#clipPath2)" cx="2640" cy="866"/>
</g>
<g fill="rgb(50,136,189)" transform="matrix(1,0,0,1,-1327,-342)" stroke="rgb(50,136,189)">
<circle r="53.7477" clip-path="url(#clipPath2)" cx="2891" cy="798" stroke="none"/>
</g>
<g stroke-miterlimit="1.45" font-size="24" font-family="sans-serif" transform="matrix(1,0,0,1,-1327,-342)" stroke-linecap="butt">
<text x="2815" xml:space="preserve" y="807.0703" clip-path="url(#clipPath2)" stroke="none">Samezegusta</text>
</g>
<g fill="rgb(51,51,51)" stroke-miterlimit="1.45" transform="matrix(1,0,0,1,-1327,-342)" stroke-linecap="butt" stroke="rgb(51,51,51)">
<circle fill="none" r="53.7477" clip-path="url(#clipPath2)" cx="2891" cy="798"/>
</g>
</g>
</svg>
