<?xml version="1.0" encoding="UTF-8"?>
<svg xmlns:xlink="http://www.w3.org/1999/xlink" xmlns="http://www.w3.org/2000/svg" fill-opacity="1" color-rendering="auto" color-interpolation="auto" text-rendering="auto" stroke="black" stroke-linecap="square" width="2496" stroke-miterlimit="10" shape-rendering="auto" stroke-opacity="1" fill="black" stroke-dasharray="none" font-weight="normal" stroke-width="1" height="1938" font-family="'Dialog'" font-style="normal" stroke-linejoin="miter" font-size="12" stroke-dashoffset="0" image-rendering="auto">
<!--Generated by ySVG-->
<defs id="genericDefs"/>
<g>
<defs id="defs1">
<clipPath clipPathUnits="userSpaceOnUse" id="clipPath1">
<path d="M0 0 L2496 0 L2496 1938 L0 1938 L0 0 Z"/>
</clipPath>
<clipPath clipPathUnits="userSpaceOnUse" id="clipPath2">
<path d="M1327 342 L3823 342 L3823 2280 L1327 2280 L1327 342 Z"/>
</clipPath>
</defs>
<g fill="white" transform="translate(-1327,-342)" stroke="white">
<rect x="1327" width="2496" height="1938" y="342" clip-path="url(#clipPath2)" stroke="none"/>
</g>
<g fill="rgb(180,180,180)" stroke-miterlimit="1.45" stroke-width="5.7" transform="matrix(1,0,0,1,-1327,-342)" stroke="rgb(180,180,180)">
<path fill="none" d="M2366.6494 1214.7673 L2397.3506 1158.2327" clip-path="url(#clipPath2)"/>
<path fill="none" d="M2320.2864 1212.4041 L2290.7136 1141.5959" clip-path="url(#clipPath2)"/>
<path fill="none" d="M2383.9509 1294.3116 L2407.0491 1311.6884" clip-path="url(#clipPath2)"/>
<path fill="none" d="M2300.8767 1297.7621 L2243.1233 1349.2379" clip-path="url(#clipPath2)"/>
<path fill="none" d="M2360.2288 1312.1903 L2439.7712 1519.8097" clip-path="url(#clipPath2)"/>
<path fill="none" d="M2323.0503 1312.6619 L2251.9497 1513.3381" clip-path="url(#clipPath2)"/>
<path fill="none" d="M2181.2739 1574.4293 L1922.7261 1625.5707" clip-path="url(#clipPath2)"/>
<path fill="none" d="M1816.3197 1638.6919 L1584.6803 1650.3081" clip-path="url(#clipPath2)"/>
<path fill="none" d="M2181.0898 1554.5479 L1799.91 1486.4521" clip-path="url(#clipPath2)"/>
<path fill="none" d="M1710.9025 1437.1781 L1657.0975 1377.8219" clip-path="url(#clipPath2)"/>
<path fill="none" d="M1530.1858 1599.2584 L1528.8142 1508.7416" clip-path="url(#clipPath2)"/>
<path fill="none" d="M1482.1794 1426.9056 L1436.8206 1399.0944" clip-path="url(#clipPath2)"/>
<path fill="none" d="M1589.7324 1294.2832 L1544.2676 1230.7168" clip-path="url(#clipPath2)"/>
<path fill="none" d="M1634.9017 1286.0812 L1656.0983 1206.9188" clip-path="url(#clipPath2)"/>
<path fill="none" d="M2150.1274 1375.3406 L1839.8726 1318.6594" clip-path="url(#clipPath2)"/>
<path fill="none" d="M2216.2529 1091.7534 L2105.7471 1091.2466" clip-path="url(#clipPath2)"/>
<path fill="none" d="M2158.1494 1355.3817 L1929.8506 1204.6183" clip-path="url(#clipPath2)"/>
<path fill="none" d="M2028.6833 1042.5732 L1971.3167 923.4268" clip-path="url(#clipPath2)"/>
<path fill="none" d="M1926.188 825.8771 L1850.812 656.1229" clip-path="url(#clipPath2)"/>
<path fill="none" d="M1965.9137 824.3254 L2041.0863 611.6746" clip-path="url(#clipPath2)"/>
<path fill="none" d="M1802.8384 560.0491 L1743.1616 452.9509" clip-path="url(#clipPath2)"/>
<path fill="none" d="M2247.2441 1043.3073 L2199.7559 941.6927" clip-path="url(#clipPath2)"/>
<path fill="none" d="M2227.4568 874.4813 L2314.5432 842.5187" clip-path="url(#clipPath2)"/>
<path fill="none" d="M2476.4001 1117.1029 L2544.5999 1124.8971" clip-path="url(#clipPath2)"/>
<path fill="none" d="M2503.679 1346.7179 L2554.321 1349.2821" clip-path="url(#clipPath2)"/>
<path fill="none" d="M2269.9248 1603.9778 L2393.0752 1741.0222" clip-path="url(#clipPath2)"/>
<path fill="none" d="M2501.7617 1602.5616 L2743.2383 1786.4384" clip-path="url(#clipPath2)"/>
<path fill="none" d="M2839.7026 1821.2009 L3098.2974 1831.7991" clip-path="url(#clipPath2)"/>
<path fill="none" d="M3162.8779 1886.6354 L3203.1221 2081.3645" clip-path="url(#clipPath2)"/>
<path fill="none" d="M3263.2654 2155.488 L3352.7346 2194.512" clip-path="url(#clipPath2)"/>
<path fill="none" d="M2598.5347 1077.255 L2599.4653 983.7451" clip-path="url(#clipPath2)"/>
<path fill="none" d="M2510.2529 1553.8148 L2768.7449 1472.1858" clip-path="url(#clipPath2)"/>
<path fill="none" d="M2512.533 1565.2012 L2907.467 1529.7988" clip-path="url(#clipPath2)"/>
<path fill="none" d="M2512.5527 1574.5726 L3014.4473 1617.4274" clip-path="url(#clipPath2)"/>
<path fill="none" d="M2660.5723 1340.8208 L2729.4277 1326.1792" clip-path="url(#clipPath2)"/>
<path fill="none" d="M2647.9937 1150.7344 L2852.0063 1231.2656" clip-path="url(#clipPath2)"/>
<path fill="none" d="M3006.2966 1496.0686 L3070.7034 1454.9314" clip-path="url(#clipPath2)"/>
<path fill="none" d="M2978.2466 1474.0945 L3005.7534 1392.9055" clip-path="url(#clipPath2)"/>
<path fill="none" d="M3062.0557 1305.0747 L3093.9443 1274.9253" clip-path="url(#clipPath2)"/>
<path fill="none" d="M3171.3147 1200.3065 L3279.6853 1093.6935" clip-path="url(#clipPath2)"/>
<path fill="none" d="M3106.6628 1584.6637 L3233.3372 1462.3363" clip-path="url(#clipPath2)"/>
<path fill="none" d="M3117.8088 1601.8036 L3383.1912 1494.1964" clip-path="url(#clipPath2)"/>
<path fill="none" d="M3121.5894 1617.8777 L3326.4106 1602.1223" clip-path="url(#clipPath2)"/>
<path fill="none" d="M3118.1233 1641.4026 L3172.8767 1662.5974" clip-path="url(#clipPath2)"/>
<path fill="none" d="M3419.084 1634.8953 L3465.916 1679.1047" clip-path="url(#clipPath2)"/>
<path fill="none" d="M3473.481 1509.3568 L3550.519 1576.6432" clip-path="url(#clipPath2)"/>
<path fill="none" d="M3485.1428 1460.9642 L3572.8572 1439.0358" clip-path="url(#clipPath2)"/>
<path fill="none" d="M3640.2952 1633.4199 L3709.7048 1663.5801" clip-path="url(#clipPath2)"/>
<path fill="none" d="M3267.2002 1712.5803 L3350.7998 1770.4197" clip-path="url(#clipPath2)"/>
<path fill="none" d="M3203.2449 1850.2102 L3394.7551 1910.7898" clip-path="url(#clipPath2)"/>
<path fill="none" d="M2889.5073 1102.5583 L2897.4927 1197.4417" clip-path="url(#clipPath2)"/>
<path fill="none" d="M2889.7156 851.7324 L2886.2844 995.2676" clip-path="url(#clipPath2)"/>
<path fill="none" d="M2329.4663 536.7916 L2112.5337 556.2084" clip-path="url(#clipPath2)"/>
<path fill="none" d="M1611.4347 1775.1145 L1560.5653 1697.8855" clip-path="url(#clipPath2)"/>
<path fill="none" d="M1691.8903 1837.2915 L1952.1097 1925.7085" clip-path="url(#clipPath2)"/>
<path fill="none" d="M1707.8689 1116.8586 L1910.1311 913.1414" clip-path="url(#clipPath2)"/>
<path fill="none" d="M1587.5558 1380.075 L1561.4442 1412.925" clip-path="url(#clipPath2)"/>
<path fill="none" d="M1759.4491 1424.7139 L1774.5509 1361.2861" clip-path="url(#clipPath2)"/>
<path fill="none" d="M1818.7283 1265.6165 L1853.2717 1218.3835" clip-path="url(#clipPath2)"/>
<path fill="none" d="M1933.0157 1150.8484 L2003.9843 1115.1516" clip-path="url(#clipPath2)"/>
<path fill="none" d="M2482.4458 1786.689 L2732.5542 1813.311" clip-path="url(#clipPath2)"/>
<path fill="none" d="M3183.9714 1877.2047 L3231.0286 1940.7953" clip-path="url(#clipPath2)"/>
<path fill="none" d="M3314.3162 1968.0164 L3394.6838 1942.9836" clip-path="url(#clipPath2)"/>
<path fill="none" d="M3425.8342 1877.1787 L3415.1658 1850.8213" clip-path="url(#clipPath2)"/>
<path fill="none" d="M3437.5298 1768.1361 L3462.4702 1748.8639" clip-path="url(#clipPath2)"/>
<path fill="none" d="M3539.2515 1674.5796 L3556.7485 1653.4204" clip-path="url(#clipPath2)"/>
<path fill="none" d="M3270.3909 1656.6443 L3332.6091 1623.3557" clip-path="url(#clipPath2)"/>
<path fill="none" d="M3080.7849 1569.795 L3103.2151 1478.205" clip-path="url(#clipPath2)"/>
<path fill="none" d="M2912.7229 1501.375 L2868.2791 1479.626" clip-path="url(#clipPath2)"/>
<path fill="none" d="M3076.1138 1389.9736 L3062.8862 1378.0264" clip-path="url(#clipPath2)"/>
<path fill="none" d="M3079.3372 1241.02 L2955.6628 1247.98" clip-path="url(#clipPath2)"/>
<path fill="none" d="M2854.5754 1276.2931 L2829.4246 1289.7069" clip-path="url(#clipPath2)"/>
<path fill="none" d="M2795.9861 1366.8961 L2806.0132 1404.1017" clip-path="url(#clipPath2)"/>
</g>
<g fill="rgb(213,62,79)" transform="matrix(1,0,0,1,-1327,-342)" stroke="rgb(213,62,79)">
<circle r="1.7916" clip-path="url(#clipPath2)" cx="2358" cy="1228" stroke="none"/>
</g>
<g fill="rgb(51,51,51)" stroke-miterlimit="1.45" transform="matrix(1,0,0,1,-1327,-342)" stroke-linecap="butt" stroke="rgb(51,51,51)">
<circle fill="none" r="1.7916" clip-path="url(#clipPath2)" cx="2358" cy="1228"/>
</g>
<g fill="rgb(252,141,89)" transform="matrix(1,0,0,1,-1327,-342)" stroke="rgb(252,141,89)">
<circle r="53.7477" clip-path="url(#clipPath2)" cx="2459" cy="1570" stroke="none"/>
</g>
<g stroke-miterlimit="1.45" font-size="24" font-family="sans-serif" transform="matrix(1,0,0,1,-1327,-342)" stroke-linecap="butt">
<text x="2408.5" xml:space="preserve" y="1579.0703" clip-path="url(#clipPath2)" stroke="none">Syracuse</text>
</g>
<g fill="rgb(51,51,51)" stroke-miterlimit="1.45" transform="matrix(1,0,0,1,-1327,-342)" stroke-linecap="butt" stroke="rgb(51,51,51)">
<circle fill="none" r="53.7477" clip-path="url(#clipPath2)" cx="2459" cy="1570"/>
</g>
<g fill="rgb(254,224,139)" transform="matrix(1,0,0,1,-1327,-342)" stroke="rgb(254,224,139)">
<circle r="53.75" clip-path="url(#clipPath2)" cx="2820" cy="1456" stroke="none"/>
</g>
<g stroke-miterlimit="1.45" font-size="24" font-family="sans-serif" transform="matrix(1,0,0,1,-1327,-342)" stroke-linecap="butt">
<text x="2779.5" xml:space="preserve" y="1465.0703" clip-path="url(#clipPath2)" stroke="none">Athens</text>
</g>
<g fill="rgb(51,51,51)" stroke-miterlimit="1.45" transform="matrix(1,0,0,1,-1327,-342)" stroke-linecap="butt" stroke="rgb(51,51,51)">
<circle fill="none" r="53.75" clip-path="url(#clipPath2)" cx="2820" cy="1456"/>
</g>
<g fill="rgb(254,224,139)" transform="matrix(1,0,0,1,-1327,-342)" stroke="rgb(254,224,139)">
<circle r="53.7477" clip-path="url(#clipPath2)" cx="2786" cy="1819" stroke="none"/>
</g>
<g stroke-miterlimit="1.45" font-size="24" font-family="sans-serif" transform="matrix(1,0,0,1,-1327,-342)" stroke-linecap="butt">
<text x="2745.5" xml:space="preserve" y="1828.0703" clip-path="url(#clipPath2)" stroke="none">Cyrene</text>
</g>
<g fill="rgb(51,51,51)" stroke-miterlimit="1.45" transform="matrix(1,0,0,1,-1327,-342)" stroke-linecap="butt" stroke="rgb(51,51,51)">
<circle fill="none" r="53.7477" clip-path="url(#clipPath2)" cx="2786" cy="1819"/>
</g>
<g fill="rgb(254,224,139)" transform="matrix(1,0,0,1,-1327,-342)" stroke="rgb(254,224,139)">
<circle r="53.7477" clip-path="url(#clipPath2)" cx="2608" cy="1352" stroke="none"/>
</g>
<g stroke-miterlimit="1.45" font-size="24" font-family="sans-serif" transform="matrix(1,0,0,1,-1327,-342)" stroke-linecap="butt">
<text x="2563" xml:space="preserve" y="1361.0703" clip-path="url(#clipPath2)" stroke="none">Taranto</text>
</g>
<g fill="rgb(51,51,51)" stroke-miterlimit="1.45" transform="matrix(1,0,0,1,-1327,-342)" stroke-linecap="butt" stroke="rgb(51,51,51)">
<circle fill="none" r="53.7477" clip-path="url(#clipPath2)" cx="2608" cy="1352"/>
</g>
<g fill="rgb(230,245,152)" transform="matrix(1,0,0,1,-1327,-342)" stroke="rgb(230,245,152)">
<circle r="53.7477" clip-path="url(#clipPath2)" cx="3116" cy="1426" stroke="none"/>
</g>
<g stroke-miterlimit="1.45" font-size="24" font-family="sans-serif" transform="matrix(1,0,0,1,-1327,-342)" stroke-linecap="butt">
<text x="3068.5" xml:space="preserve" y="1435.0703" clip-path="url(#clipPath2)" stroke="none">Ephesus</text>
</g>
<g fill="rgb(51,51,51)" stroke-miterlimit="1.45" transform="matrix(1,0,0,1,-1327,-342)" stroke-linecap="butt" stroke="rgb(51,51,51)">
<circle fill="none" r="53.7477" clip-path="url(#clipPath2)" cx="3116" cy="1426"/>
</g>
<g fill="rgb(254,224,139)" transform="matrix(1,0,0,1,-1327,-342)" stroke="rgb(254,224,139)">
<circle r="53.7477" clip-path="url(#clipPath2)" cx="2961" cy="1525" stroke="none"/>
</g>
<g stroke-miterlimit="1.45" font-size="24" font-family="sans-serif" transform="matrix(1,0,0,1,-1327,-342)" stroke-linecap="butt">
<text x="2928.5" xml:space="preserve" y="1534.0703" clip-path="url(#clipPath2)" stroke="none">Delos</text>
</g>
<g fill="rgb(51,51,51)" stroke-miterlimit="1.45" transform="matrix(1,0,0,1,-1327,-342)" stroke-linecap="butt" stroke="rgb(51,51,51)">
<circle fill="none" r="53.7477" clip-path="url(#clipPath2)" cx="2961" cy="1525"/>
</g>
<g fill="rgb(230,245,152)" transform="matrix(1,0,0,1,-1327,-342)" stroke="rgb(230,245,152)">
<circle r="53.7477" clip-path="url(#clipPath2)" cx="3023" cy="1342" stroke="none"/>
</g>
<g stroke-miterlimit="1.45" font-size="24" font-family="sans-serif" transform="matrix(1,0,0,1,-1327,-342)" stroke-linecap="butt">
<text x="2965" xml:space="preserve" y="1351.0703" clip-path="url(#clipPath2)" stroke="none">Pergamon</text>
</g>
<g fill="rgb(51,51,51)" stroke-miterlimit="1.45" transform="matrix(1,0,0,1,-1327,-342)" stroke-linecap="butt" stroke="rgb(51,51,51)">
<circle fill="none" r="53.7477" clip-path="url(#clipPath2)" cx="3023" cy="1342"/>
</g>
<g fill="rgb(230,245,152)" transform="matrix(1,0,0,1,-1327,-342)" stroke="rgb(230,245,152)">
<circle r="53.7477" clip-path="url(#clipPath2)" cx="2782" cy="1315" stroke="none"/>
</g>
<g stroke-miterlimit="1.45" font-size="24" font-family="sans-serif" transform="matrix(1,0,0,1,-1327,-342)" stroke-linecap="butt">
<text x="2742" xml:space="preserve" y="1324.0703" clip-path="url(#clipPath2)" stroke="none">Larissa</text>
</g>
<g fill="rgb(51,51,51)" stroke-miterlimit="1.45" transform="matrix(1,0,0,1,-1327,-342)" stroke-linecap="butt" stroke="rgb(51,51,51)">
<circle fill="none" r="53.7477" clip-path="url(#clipPath2)" cx="2782" cy="1315"/>
</g>
<g fill="rgb(213,62,79)" transform="matrix(1,0,0,1,-1327,-342)" stroke="rgb(213,62,79)">
<circle r="53.7477" clip-path="url(#clipPath2)" cx="2341" cy="1262" stroke="none"/>
</g>
<g stroke-miterlimit="1.45" font-size="24" font-family="sans-serif" transform="matrix(1,0,0,1,-1327,-342)" stroke-linecap="butt">
<text x="2308.5" xml:space="preserve" y="1271.0703" clip-path="url(#clipPath2)" stroke="none">Rome</text>
</g>
<g fill="rgb(51,51,51)" stroke-miterlimit="1.45" transform="matrix(1,0,0,1,-1327,-342)" stroke-linecap="butt" stroke="rgb(51,51,51)">
<circle fill="none" r="53.7477" clip-path="url(#clipPath2)" cx="2341" cy="1262"/>
</g>
<g fill="rgb(252,141,89)" transform="matrix(1,0,0,1,-1327,-342)" stroke="rgb(252,141,89)">
<circle r="53.7477" clip-path="url(#clipPath2)" cx="2450" cy="1344" stroke="none"/>
</g>
<g stroke-miterlimit="1.45" font-size="24" font-family="sans-serif" transform="matrix(1,0,0,1,-1327,-342)" stroke-linecap="butt">
<text x="2410.5" xml:space="preserve" y="1353.0703" clip-path="url(#clipPath2)" stroke="none">Puteoli</text>
</g>
<g fill="rgb(51,51,51)" stroke-miterlimit="1.45" transform="matrix(1,0,0,1,-1327,-342)" stroke-linecap="butt" stroke="rgb(51,51,51)">
<circle fill="none" r="53.7477" clip-path="url(#clipPath2)" cx="2450" cy="1344"/>
</g>
<g fill="rgb(254,224,139)" transform="matrix(1,0,0,1,-1327,-342)" stroke="rgb(254,224,139)">
<circle r="53.7477" clip-path="url(#clipPath2)" cx="2052" cy="1091" stroke="none"/>
</g>
<g stroke-miterlimit="1.45" font-size="24" font-family="sans-serif" transform="matrix(1,0,0,1,-1327,-342)" stroke-linecap="butt">
<text x="2000.5" xml:space="preserve" y="1100.0703" clip-path="url(#clipPath2)" stroke="none">Marseille</text>
</g>
<g fill="rgb(51,51,51)" stroke-miterlimit="1.45" transform="matrix(1,0,0,1,-1327,-342)" stroke-linecap="butt" stroke="rgb(51,51,51)">
<circle fill="none" r="53.7477" clip-path="url(#clipPath2)" cx="2052" cy="1091"/>
</g>
<g fill="rgb(254,224,139)" transform="matrix(1,0,0,1,-1327,-342)" stroke="rgb(254,224,139)">
<circle r="53.7477" clip-path="url(#clipPath2)" cx="1885" cy="1175" stroke="none"/>
</g>
<g stroke-miterlimit="1.45" font-size="24" font-family="sans-serif" transform="matrix(1,0,0,1,-1327,-342)" stroke-linecap="butt">
<text x="1849.5" xml:space="preserve" y="1184.0703" clip-path="url(#clipPath2)" stroke="none">Narbo</text>
</g>
<g fill="rgb(51,51,51)" stroke-miterlimit="1.45" transform="matrix(1,0,0,1,-1327,-342)" stroke-linecap="butt" stroke="rgb(51,51,51)">
<circle fill="none" r="53.7477" clip-path="url(#clipPath2)" cx="1885" cy="1175"/>
</g>
<g fill="rgb(254,224,139)" transform="matrix(1,0,0,1,-1327,-342)" stroke="rgb(254,224,139)">
<circle r="53.7477" clip-path="url(#clipPath2)" cx="1787" cy="1309" stroke="none"/>
</g>
<g stroke-miterlimit="1.45" font-size="24" font-family="sans-serif" transform="matrix(1,0,0,1,-1327,-342)" stroke-linecap="butt">
<text x="1743" xml:space="preserve" y="1318.0703" clip-path="url(#clipPath2)" stroke="none">Tarraco</text>
</g>
<g fill="rgb(51,51,51)" stroke-miterlimit="1.45" transform="matrix(1,0,0,1,-1327,-342)" stroke-linecap="butt" stroke="rgb(51,51,51)">
<circle fill="none" r="53.7477" clip-path="url(#clipPath2)" cx="1787" cy="1309"/>
</g>
<g fill="rgb(254,224,139)" transform="matrix(1,0,0,1,-1327,-342)" stroke="rgb(254,224,139)">
<circle r="53.7477" clip-path="url(#clipPath2)" cx="2177" cy="893" stroke="none"/>
</g>
<g stroke-miterlimit="1.45" font-size="24" font-family="sans-serif" transform="matrix(1,0,0,1,-1327,-342)" stroke-linecap="butt">
<text x="2116.5" xml:space="preserve" y="902.0703" clip-path="url(#clipPath2)" stroke="none">Mediolano</text>
</g>
<g fill="rgb(51,51,51)" stroke-miterlimit="1.45" transform="matrix(1,0,0,1,-1327,-342)" stroke-linecap="butt" stroke="rgb(51,51,51)">
<circle fill="none" r="53.7477" clip-path="url(#clipPath2)" cx="2177" cy="893"/>
</g>
<g fill="rgb(230,245,152)" transform="matrix(1,0,0,1,-1327,-342)" stroke="rgb(230,245,152)">
<circle r="53.7477" clip-path="url(#clipPath2)" cx="2365" cy="824" stroke="none"/>
</g>
<g stroke-miterlimit="1.45" font-size="24" font-family="sans-serif" transform="matrix(1,0,0,1,-1327,-342)" stroke-linecap="butt">
<text x="2304.5" xml:space="preserve" y="833.0703" clip-path="url(#clipPath2)" stroke="none">Tridentum</text>
</g>
<g fill="rgb(51,51,51)" stroke-miterlimit="1.45" transform="matrix(1,0,0,1,-1327,-342)" stroke-linecap="butt" stroke="rgb(51,51,51)">
<circle fill="none" r="53.7477" clip-path="url(#clipPath2)" cx="2365" cy="824"/>
</g>
<g fill="rgb(252,141,89)" transform="matrix(1,0,0,1,-1327,-342)" stroke="rgb(252,141,89)">
<circle r="53.7477" clip-path="url(#clipPath2)" cx="2203" cy="1385" stroke="none"/>
</g>
<g stroke-miterlimit="1.45" font-size="24" font-family="sans-serif" transform="matrix(1,0,0,1,-1327,-342)" stroke-linecap="butt">
<text x="2163.5" xml:space="preserve" y="1394.0703" clip-path="url(#clipPath2)" stroke="none">Caralis</text>
</g>
<g fill="rgb(51,51,51)" stroke-miterlimit="1.45" transform="matrix(1,0,0,1,-1327,-342)" stroke-linecap="butt" stroke="rgb(51,51,51)">
<circle fill="none" r="53.7477" clip-path="url(#clipPath2)" cx="2203" cy="1385"/>
</g>
<g fill="rgb(252,141,89)" transform="matrix(1,0,0,1,-1327,-342)" stroke="rgb(252,141,89)">
<circle r="53.7477" clip-path="url(#clipPath2)" cx="2270" cy="1092" stroke="none"/>
</g>
<g stroke-miterlimit="1.45" font-size="24" font-family="sans-serif" transform="matrix(1,0,0,1,-1327,-342)" stroke-linecap="butt">
<text x="2242" xml:space="preserve" y="1101.0703" clip-path="url(#clipPath2)" stroke="none">Luna</text>
</g>
<g fill="rgb(51,51,51)" stroke-miterlimit="1.45" transform="matrix(1,0,0,1,-1327,-342)" stroke-linecap="butt" stroke="rgb(51,51,51)">
<circle fill="none" r="53.7477" clip-path="url(#clipPath2)" cx="2270" cy="1092"/>
</g>
<g fill="rgb(153,213,148)" transform="matrix(1,0,0,1,-1327,-342)" stroke="rgb(153,213,148)">
<circle r="53.7477" clip-path="url(#clipPath2)" cx="1391" cy="1371" stroke="none"/>
</g>
<g stroke-miterlimit="1.45" font-size="24" font-family="sans-serif" transform="matrix(1,0,0,1,-1327,-342)" stroke-linecap="butt">
<text x="1342" xml:space="preserve" y="1380.0703" clip-path="url(#clipPath2)" stroke="none">Pax Iulia</text>
</g>
<g fill="rgb(51,51,51)" stroke-miterlimit="1.45" transform="matrix(1,0,0,1,-1327,-342)" stroke-linecap="butt" stroke="rgb(51,51,51)">
<circle fill="none" r="53.7477" clip-path="url(#clipPath2)" cx="1391" cy="1371"/>
</g>
<g fill="rgb(230,245,152)" transform="matrix(1,0,0,1,-1327,-342)" stroke="rgb(230,245,152)">
<circle r="53.7477" clip-path="url(#clipPath2)" cx="1528" cy="1455" stroke="none"/>
</g>
<g stroke-miterlimit="1.45" font-size="24" font-family="sans-serif" transform="matrix(1,0,0,1,-1327,-342)" stroke-linecap="butt">
<text x="1482.5" xml:space="preserve" y="1464.0703" clip-path="url(#clipPath2)" stroke="none">Hispalis</text>
</g>
<g fill="rgb(51,51,51)" stroke-miterlimit="1.45" transform="matrix(1,0,0,1,-1327,-342)" stroke-linecap="butt" stroke="rgb(51,51,51)">
<circle fill="none" r="53.7477" clip-path="url(#clipPath2)" cx="1528" cy="1455"/>
</g>
<g fill="rgb(230,245,152)" transform="matrix(1,0,0,1,-1327,-342)" stroke="rgb(230,245,152)">
<circle r="53.7477" clip-path="url(#clipPath2)" cx="1531" cy="1653" stroke="none"/>
</g>
<g stroke-miterlimit="1.45" font-size="24" font-family="sans-serif" transform="matrix(1,0,0,1,-1327,-342)" stroke-linecap="butt">
<text x="1501.5" xml:space="preserve" y="1662.0703" clip-path="url(#clipPath2)" stroke="none">Tingi</text>
</g>
<g fill="rgb(51,51,51)" stroke-miterlimit="1.45" transform="matrix(1,0,0,1,-1327,-342)" stroke-linecap="butt" stroke="rgb(51,51,51)">
<circle fill="none" r="53.7477" clip-path="url(#clipPath2)" cx="1531" cy="1653"/>
</g>
<g fill="rgb(50,136,189)" transform="matrix(1,0,0,1,-1327,-342)" stroke="rgb(50,136,189)">
<circle r="53.7477" clip-path="url(#clipPath2)" cx="2003" cy="1943" stroke="none"/>
</g>
<g stroke-miterlimit="1.45" font-size="24" font-family="sans-serif" transform="matrix(1,0,0,1,-1327,-342)" stroke-linecap="butt">
<text x="1934.5" xml:space="preserve" y="1952.0703" clip-path="url(#clipPath2)" stroke="none">Garamantes</text>
</g>
<g fill="rgb(51,51,51)" stroke-miterlimit="1.45" transform="matrix(1,0,0,1,-1327,-342)" stroke-linecap="butt" stroke="rgb(51,51,51)">
<circle fill="none" r="53.7477" clip-path="url(#clipPath2)" cx="2003" cy="1943"/>
</g>
<g fill="rgb(153,213,148)" transform="matrix(1,0,0,1,-1327,-342)" stroke="rgb(153,213,148)">
<circle r="53.7477" clip-path="url(#clipPath2)" cx="1641" cy="1820" stroke="none"/>
</g>
<g stroke-miterlimit="1.45" font-size="24" font-family="sans-serif" transform="matrix(1,0,0,1,-1327,-342)" stroke-linecap="butt">
<text x="1497" xml:space="preserve" y="1829.0703" clip-path="url(#clipPath2)" stroke="none">a city in Atlas Mountains</text>
</g>
<g fill="rgb(51,51,51)" stroke-miterlimit="1.45" transform="matrix(1,0,0,1,-1327,-342)" stroke-linecap="butt" stroke="rgb(51,51,51)">
<circle fill="none" r="53.7477" clip-path="url(#clipPath2)" cx="1641" cy="1820"/>
</g>
<g fill="rgb(153,213,148)" transform="matrix(1,0,0,1,-1327,-342)" stroke="rgb(153,213,148)">
<circle r="53.7477" clip-path="url(#clipPath2)" cx="3505" cy="1716" stroke="none"/>
</g>
<g stroke-miterlimit="1.45" font-size="24" font-family="sans-serif" transform="matrix(1,0,0,1,-1327,-342)" stroke-linecap="butt">
<text x="3446.5" xml:space="preserve" y="1725.0703" clip-path="url(#clipPath2)" stroke="none">Damascus</text>
</g>
<g fill="rgb(51,51,51)" stroke-miterlimit="1.45" transform="matrix(1,0,0,1,-1327,-342)" stroke-linecap="butt" stroke="rgb(51,51,51)">
<circle fill="none" r="53.7477" clip-path="url(#clipPath2)" cx="3505" cy="1716"/>
</g>
<g fill="rgb(254,224,139)" transform="matrix(1,0,0,1,-1327,-342)" stroke="rgb(254,224,139)">
<circle r="53.7477" clip-path="url(#clipPath2)" cx="3068" cy="1622" stroke="none"/>
</g>
<g stroke-miterlimit="1.45" font-size="24" font-family="sans-serif" transform="matrix(1,0,0,1,-1327,-342)" stroke-linecap="butt">
<text x="3025.5" xml:space="preserve" y="1631.0703" clip-path="url(#clipPath2)" stroke="none">Rhodes</text>
</g>
<g fill="rgb(51,51,51)" stroke-miterlimit="1.45" transform="matrix(1,0,0,1,-1327,-342)" stroke-linecap="butt" stroke="rgb(51,51,51)">
<circle fill="none" r="53.7477" clip-path="url(#clipPath2)" cx="3068" cy="1622"/>
</g>
<g fill="rgb(153,213,148)" transform="matrix(1,0,0,1,-1327,-342)" stroke="rgb(153,213,148)">
<circle r="53.7477" clip-path="url(#clipPath2)" cx="3395" cy="1801" stroke="none"/>
</g>
<g stroke-miterlimit="1.45" font-size="24" font-family="sans-serif" transform="matrix(1,0,0,1,-1327,-342)" stroke-linecap="butt">
<text x="3339" xml:space="preserve" y="1810.0703" clip-path="url(#clipPath2)" stroke="none">Jerusalem</text>
</g>
<g fill="rgb(51,51,51)" stroke-miterlimit="1.45" transform="matrix(1,0,0,1,-1327,-342)" stroke-linecap="butt" stroke="rgb(51,51,51)">
<circle fill="none" r="53.7477" clip-path="url(#clipPath2)" cx="3395" cy="1801"/>
</g>
<g fill="rgb(230,245,152)" transform="matrix(1,0,0,1,-1327,-342)" stroke="rgb(230,245,152)">
<circle r="53.7477" clip-path="url(#clipPath2)" cx="3223" cy="1682" stroke="none"/>
</g>
<g stroke-miterlimit="1.45" font-size="24" font-family="sans-serif" transform="matrix(1,0,0,1,-1327,-342)" stroke-linecap="butt">
<text x="3181.5" xml:space="preserve" y="1691.0703" clip-path="url(#clipPath2)" stroke="none">Paphos</text>
</g>
<g fill="rgb(51,51,51)" stroke-miterlimit="1.45" transform="matrix(1,0,0,1,-1327,-342)" stroke-linecap="butt" stroke="rgb(51,51,51)">
<circle fill="none" r="53.7477" clip-path="url(#clipPath2)" cx="3223" cy="1682"/>
</g>
<g fill="rgb(230,245,152)" transform="matrix(1,0,0,1,-1327,-342)" stroke="rgb(230,245,152)">
<circle r="53.7477" clip-path="url(#clipPath2)" cx="3380" cy="1598" stroke="none"/>
</g>
<g stroke-miterlimit="1.45" font-size="24" font-family="sans-serif" transform="matrix(1,0,0,1,-1327,-342)" stroke-linecap="butt">
<text x="3336.5" xml:space="preserve" y="1607.0703" clip-path="url(#clipPath2)" stroke="none">Salamis</text>
</g>
<g fill="rgb(51,51,51)" stroke-miterlimit="1.45" transform="matrix(1,0,0,1,-1327,-342)" stroke-linecap="butt" stroke="rgb(51,51,51)">
<circle fill="none" r="53.7477" clip-path="url(#clipPath2)" cx="3380" cy="1598"/>
</g>
<g fill="rgb(230,245,152)" transform="matrix(1,0,0,1,-1327,-342)" stroke="rgb(230,245,152)">
<circle r="53.7477" clip-path="url(#clipPath2)" cx="3272" cy="1425" stroke="none"/>
</g>
<g stroke-miterlimit="1.45" font-size="24" font-family="sans-serif" transform="matrix(1,0,0,1,-1327,-342)" stroke-linecap="butt">
<text x="3240" xml:space="preserve" y="1434.0703" clip-path="url(#clipPath2)" stroke="none">Perge</text>
</g>
<g fill="rgb(51,51,51)" stroke-miterlimit="1.45" transform="matrix(1,0,0,1,-1327,-342)" stroke-linecap="butt" stroke="rgb(51,51,51)">
<circle fill="none" r="53.7477" clip-path="url(#clipPath2)" cx="3272" cy="1425"/>
</g>
<g fill="rgb(153,213,148)" transform="matrix(1,0,0,1,-1327,-342)" stroke="rgb(153,213,148)">
<circle r="53.7477" clip-path="url(#clipPath2)" cx="1513" cy="1187" stroke="none"/>
</g>
<g stroke-miterlimit="1.45" font-size="24" font-family="sans-serif" transform="matrix(1,0,0,1,-1327,-342)" stroke-linecap="butt">
<text x="1465" xml:space="preserve" y="1196.0703" clip-path="url(#clipPath2)" stroke="none">Toletum</text>
</g>
<g fill="rgb(51,51,51)" stroke-miterlimit="1.45" transform="matrix(1,0,0,1,-1327,-342)" stroke-linecap="butt" stroke="rgb(51,51,51)">
<circle fill="none" r="53.7477" clip-path="url(#clipPath2)" cx="1513" cy="1187"/>
</g>
<g fill="rgb(252,141,89)" transform="matrix(1,0,0,1,-1327,-342)" stroke="rgb(252,141,89)">
<circle r="53.7477" clip-path="url(#clipPath2)" cx="2234" cy="1564" stroke="none"/>
</g>
<g stroke-miterlimit="1.45" font-size="24" font-family="sans-serif" transform="matrix(1,0,0,1,-1327,-342)" stroke-linecap="butt">
<text x="2181.5" xml:space="preserve" y="1573.0703" clip-path="url(#clipPath2)" stroke="none">Carthage</text>
</g>
<g fill="rgb(51,51,51)" stroke-miterlimit="1.45" transform="matrix(1,0,0,1,-1327,-342)" stroke-linecap="butt" stroke="rgb(51,51,51)">
<circle fill="none" r="53.7477" clip-path="url(#clipPath2)" cx="2234" cy="1564"/>
</g>
<g fill="rgb(254,224,139)" transform="matrix(1,0,0,1,-1327,-342)" stroke="rgb(254,224,139)">
<circle r="53.7477" clip-path="url(#clipPath2)" cx="2429" cy="1781" stroke="none"/>
</g>
<g stroke-miterlimit="1.45" font-size="24" font-family="sans-serif" transform="matrix(1,0,0,1,-1327,-342)" stroke-linecap="butt">
<text x="2350.5" xml:space="preserve" y="1790.0703" clip-path="url(#clipPath2)" stroke="none">Lepcis Magna</text>
</g>
<g fill="rgb(51,51,51)" stroke-miterlimit="1.45" transform="matrix(1,0,0,1,-1327,-342)" stroke-linecap="butt" stroke="rgb(51,51,51)">
<circle fill="none" r="53.7477" clip-path="url(#clipPath2)" cx="2429" cy="1781"/>
</g>
<g fill="rgb(254,224,139)" transform="matrix(1,0,0,1,-1327,-342)" stroke="rgb(254,224,139)">
<circle r="53.7477" clip-path="url(#clipPath2)" cx="1747" cy="1477" stroke="none"/>
</g>
<g stroke-miterlimit="1.45" font-size="24" font-family="sans-serif" transform="matrix(1,0,0,1,-1327,-342)" stroke-linecap="butt">
<text x="1660.5" xml:space="preserve" y="1486.0703" clip-path="url(#clipPath2)" stroke="none">Carthago Nova</text>
</g>
<g fill="rgb(51,51,51)" stroke-miterlimit="1.45" transform="matrix(1,0,0,1,-1327,-342)" stroke-linecap="butt" stroke="rgb(51,51,51)">
<circle fill="none" r="53.7477" clip-path="url(#clipPath2)" cx="1747" cy="1477"/>
</g>
<g fill="rgb(230,245,152)" transform="matrix(1,0,0,1,-1327,-342)" stroke="rgb(230,245,152)">
<circle r="53.7477" clip-path="url(#clipPath2)" cx="1621" cy="1338" stroke="none"/>
</g>
<g stroke-miterlimit="1.45" font-size="24" font-family="sans-serif" transform="matrix(1,0,0,1,-1327,-342)" stroke-linecap="butt">
<text x="1571" xml:space="preserve" y="1347.0703" clip-path="url(#clipPath2)" stroke="none">Cordoba</text>
</g>
<g fill="rgb(51,51,51)" stroke-miterlimit="1.45" transform="matrix(1,0,0,1,-1327,-342)" stroke-linecap="butt" stroke="rgb(51,51,51)">
<circle fill="none" r="53.7477" clip-path="url(#clipPath2)" cx="1621" cy="1338"/>
</g>
<g fill="rgb(254,224,139)" transform="matrix(1,0,0,1,-1327,-342)" stroke="rgb(254,224,139)">
<circle r="53.7477" clip-path="url(#clipPath2)" cx="1870" cy="1636" stroke="none"/>
</g>
<g stroke-miterlimit="1.45" font-size="24" font-family="sans-serif" transform="matrix(1,0,0,1,-1327,-342)" stroke-linecap="butt">
<text x="1799.5" xml:space="preserve" y="1645.0703" clip-path="url(#clipPath2)" stroke="none">Iol Caesarea</text>
</g>
<g fill="rgb(51,51,51)" stroke-miterlimit="1.45" transform="matrix(1,0,0,1,-1327,-342)" stroke-linecap="butt" stroke="rgb(51,51,51)">
<circle fill="none" r="53.7477" clip-path="url(#clipPath2)" cx="1870" cy="1636"/>
</g>
<g fill="rgb(153,213,148)" transform="matrix(1,0,0,1,-1327,-342)" stroke="rgb(153,213,148)">
<circle r="53.7477" clip-path="url(#clipPath2)" cx="3214" cy="2134" stroke="none"/>
</g>
<g stroke-miterlimit="1.45" font-size="24" font-family="sans-serif" transform="matrix(1,0,0,1,-1327,-342)" stroke-linecap="butt">
<text x="3172.5" xml:space="preserve" y="2143.0703" clip-path="url(#clipPath2)" stroke="none">Coptos</text>
</g>
<g fill="rgb(51,51,51)" stroke-miterlimit="1.45" transform="matrix(1,0,0,1,-1327,-342)" stroke-linecap="butt" stroke="rgb(51,51,51)">
<circle fill="none" r="53.7477" clip-path="url(#clipPath2)" cx="3214" cy="2134"/>
</g>
<g fill="rgb(153,213,148)" transform="matrix(1,0,0,1,-1327,-342)" stroke="rgb(153,213,148)">
<circle r="53.7477" clip-path="url(#clipPath2)" cx="3446" cy="1927" stroke="none"/>
</g>
<g stroke-miterlimit="1.45" font-size="24" font-family="sans-serif" transform="matrix(1,0,0,1,-1327,-342)" stroke-linecap="butt">
<text x="3417" xml:space="preserve" y="1936.0703" clip-path="url(#clipPath2)" stroke="none">Petra</text>
</g>
<g fill="rgb(51,51,51)" stroke-miterlimit="1.45" transform="matrix(1,0,0,1,-1327,-342)" stroke-linecap="butt" stroke="rgb(51,51,51)">
<circle fill="none" r="53.7477" clip-path="url(#clipPath2)" cx="3446" cy="1927"/>
</g>
<g fill="rgb(230,245,152)" transform="matrix(1,0,0,1,-1327,-342)" stroke="rgb(230,245,152)">
<circle r="53.7477" clip-path="url(#clipPath2)" cx="3152" cy="1834" stroke="none"/>
</g>
<g stroke-miterlimit="1.45" font-size="24" font-family="sans-serif" transform="matrix(1,0,0,1,-1327,-342)" stroke-linecap="butt">
<text x="3089.5" xml:space="preserve" y="1843.0703" clip-path="url(#clipPath2)" stroke="none">Alexandria</text>
</g>
<g fill="rgb(51,51,51)" stroke-miterlimit="1.45" transform="matrix(1,0,0,1,-1327,-342)" stroke-linecap="butt" stroke="rgb(51,51,51)">
<circle fill="none" r="53.7477" clip-path="url(#clipPath2)" cx="3152" cy="1834"/>
</g>
<g fill="rgb(50,136,189)" transform="matrix(1,0,0,1,-1327,-342)" stroke="rgb(50,136,189)">
<circle r="53.7477" clip-path="url(#clipPath2)" cx="3402" cy="2216" stroke="none"/>
</g>
<g stroke-miterlimit="1.45" font-size="24" font-family="sans-serif" transform="matrix(1,0,0,1,-1327,-342)" stroke-linecap="butt">
<text x="3353.5" xml:space="preserve" y="2225.0703" clip-path="url(#clipPath2)" stroke="none">Berenice</text>
</g>
<g fill="rgb(51,51,51)" stroke-miterlimit="1.45" transform="matrix(1,0,0,1,-1327,-342)" stroke-linecap="butt" stroke="rgb(51,51,51)">
<circle fill="none" r="53.7477" clip-path="url(#clipPath2)" cx="3402" cy="2216"/>
</g>
<g fill="rgb(153,213,148)" transform="matrix(1,0,0,1,-1327,-342)" stroke="rgb(153,213,148)">
<circle r="53.7477" clip-path="url(#clipPath2)" cx="3263" cy="1984" stroke="none"/>
</g>
<g stroke-miterlimit="1.45" font-size="24" font-family="sans-serif" transform="matrix(1,0,0,1,-1327,-342)" stroke-linecap="butt">
<text x="3210.5" xml:space="preserve" y="1993.0703" clip-path="url(#clipPath2)" stroke="none">Memphis</text>
</g>
<g fill="rgb(51,51,51)" stroke-miterlimit="1.45" transform="matrix(1,0,0,1,-1327,-342)" stroke-linecap="butt" stroke="rgb(51,51,51)">
<circle fill="none" r="53.7477" clip-path="url(#clipPath2)" cx="3263" cy="1984"/>
</g>
<g fill="rgb(153,213,148)" transform="matrix(1,0,0,1,-1327,-342)" stroke="rgb(153,213,148)">
<circle r="53.7477" clip-path="url(#clipPath2)" cx="3591" cy="1612" stroke="none"/>
</g>
<g stroke-miterlimit="1.45" font-size="24" font-family="sans-serif" transform="matrix(1,0,0,1,-1327,-342)" stroke-linecap="butt">
<text x="3545.5" xml:space="preserve" y="1621.0703" clip-path="url(#clipPath2)" stroke="none">Palmyra</text>
</g>
<g fill="rgb(51,51,51)" stroke-miterlimit="1.45" transform="matrix(1,0,0,1,-1327,-342)" stroke-linecap="butt" stroke="rgb(51,51,51)">
<circle fill="none" r="53.7477" clip-path="url(#clipPath2)" cx="3591" cy="1612"/>
</g>
<g fill="rgb(153,213,148)" transform="matrix(1,0,0,1,-1327,-342)" stroke="rgb(153,213,148)">
<circle r="53.7477" clip-path="url(#clipPath2)" cx="3625" cy="1426" stroke="none"/>
</g>
<g stroke-miterlimit="1.45" font-size="24" font-family="sans-serif" transform="matrix(1,0,0,1,-1327,-342)" stroke-linecap="butt">
<text x="3586" xml:space="preserve" y="1435.0703" clip-path="url(#clipPath2)" stroke="none">Edessa</text>
</g>
<g fill="rgb(51,51,51)" stroke-miterlimit="1.45" transform="matrix(1,0,0,1,-1327,-342)" stroke-linecap="butt" stroke="rgb(51,51,51)">
<circle fill="none" r="53.7477" clip-path="url(#clipPath2)" cx="3625" cy="1426"/>
</g>
<g fill="rgb(230,245,152)" transform="matrix(1,0,0,1,-1327,-342)" stroke="rgb(230,245,152)">
<circle r="53.7477" clip-path="url(#clipPath2)" cx="3433" cy="1474" stroke="none"/>
</g>
<g stroke-miterlimit="1.45" font-size="24" font-family="sans-serif" transform="matrix(1,0,0,1,-1327,-342)" stroke-linecap="butt">
<text x="3388" xml:space="preserve" y="1483.0703" clip-path="url(#clipPath2)" stroke="none">Antioch</text>
</g>
<g fill="rgb(51,51,51)" stroke-miterlimit="1.45" transform="matrix(1,0,0,1,-1327,-342)" stroke-linecap="butt" stroke="rgb(51,51,51)">
<circle fill="none" r="53.7477" clip-path="url(#clipPath2)" cx="3433" cy="1474"/>
</g>
<g fill="rgb(50,136,189)" transform="matrix(1,0,0,1,-1327,-342)" stroke="rgb(50,136,189)">
<circle r="53.7477" clip-path="url(#clipPath2)" cx="3759" cy="1685" stroke="none"/>
</g>
<g stroke-miterlimit="1.45" font-size="24" font-family="sans-serif" transform="matrix(1,0,0,1,-1327,-342)" stroke-linecap="butt">
<text x="3719" xml:space="preserve" y="1694.0703" clip-path="url(#clipPath2)" stroke="none">Parthia</text>
</g>
<g fill="rgb(51,51,51)" stroke-miterlimit="1.45" transform="matrix(1,0,0,1,-1327,-342)" stroke-linecap="butt" stroke="rgb(51,51,51)">
<circle fill="none" r="53.7477" clip-path="url(#clipPath2)" cx="3759" cy="1685"/>
</g>
<g fill="rgb(153,213,148)" transform="matrix(1,0,0,1,-1327,-342)" stroke="rgb(153,213,148)">
<circle r="53.7477" clip-path="url(#clipPath2)" cx="1829" cy="607" stroke="none"/>
</g>
<g stroke-miterlimit="1.45" font-size="24" font-family="sans-serif" transform="matrix(1,0,0,1,-1327,-342)" stroke-linecap="butt">
<text x="1767" xml:space="preserve" y="616.0703" clip-path="url(#clipPath2)" stroke="none">Londinium</text>
</g>
<g fill="rgb(51,51,51)" stroke-miterlimit="1.45" transform="matrix(1,0,0,1,-1327,-342)" stroke-linecap="butt" stroke="rgb(51,51,51)">
<circle fill="none" r="53.7477" clip-path="url(#clipPath2)" cx="1829" cy="607"/>
</g>
<g fill="rgb(153,213,148)" transform="matrix(1,0,0,1,-1327,-342)" stroke="rgb(153,213,148)">
<circle r="53.7477" clip-path="url(#clipPath2)" cx="1670" cy="1155" stroke="none"/>
</g>
<g stroke-miterlimit="1.45" font-size="24" font-family="sans-serif" transform="matrix(1,0,0,1,-1327,-342)" stroke-linecap="butt">
<text x="1536" xml:space="preserve" y="1164.0703" clip-path="url(#clipPath2)" stroke="none">Colonia Clunia Sulpicia</text>
</g>
<g fill="rgb(51,51,51)" stroke-miterlimit="1.45" transform="matrix(1,0,0,1,-1327,-342)" stroke-linecap="butt" stroke="rgb(51,51,51)">
<circle fill="none" r="53.7477" clip-path="url(#clipPath2)" cx="1670" cy="1155"/>
</g>
<g fill="rgb(153,213,148)" transform="matrix(1,0,0,1,-1327,-342)" stroke="rgb(153,213,148)">
<circle r="53.7477" clip-path="url(#clipPath2)" cx="2059" cy="561" stroke="none"/>
</g>
<g stroke-miterlimit="1.45" font-size="24" font-family="sans-serif" transform="matrix(1,0,0,1,-1327,-342)" stroke-linecap="butt">
<text x="1912" xml:space="preserve" y="570.0703" clip-path="url(#clipPath2)" stroke="none">Lugdunum Cananefatium</text>
</g>
<g fill="rgb(51,51,51)" stroke-miterlimit="1.45" transform="matrix(1,0,0,1,-1327,-342)" stroke-linecap="butt" stroke="rgb(51,51,51)">
<circle fill="none" r="53.7477" clip-path="url(#clipPath2)" cx="2059" cy="561"/>
</g>
<g fill="rgb(230,245,152)" transform="matrix(1,0,0,1,-1327,-342)" stroke="rgb(230,245,152)">
<circle r="53.7477" clip-path="url(#clipPath2)" cx="1948" cy="875" stroke="none"/>
</g>
<g stroke-miterlimit="1.45" font-size="24" font-family="sans-serif" transform="matrix(1,0,0,1,-1327,-342)" stroke-linecap="butt">
<text x="1885.5" xml:space="preserve" y="884.0703" clip-path="url(#clipPath2)" stroke="none">Lugdunum</text>
</g>
<g fill="rgb(51,51,51)" stroke-miterlimit="1.45" transform="matrix(1,0,0,1,-1327,-342)" stroke-linecap="butt" stroke="rgb(51,51,51)">
<circle fill="none" r="53.7477" clip-path="url(#clipPath2)" cx="1948" cy="875"/>
</g>
<g fill="rgb(50,136,189)" transform="matrix(1,0,0,1,-1327,-342)" stroke="rgb(50,136,189)">
<circle r="53.7477" clip-path="url(#clipPath2)" cx="1717" cy="406" stroke="none"/>
</g>
<g stroke-miterlimit="1.45" font-size="24" font-family="sans-serif" transform="matrix(1,0,0,1,-1327,-342)" stroke-linecap="butt">
<text x="1659.5" xml:space="preserve" y="415.0703" clip-path="url(#clipPath2)" stroke="none">Eburacum</text>
</g>
<g fill="rgb(51,51,51)" stroke-miterlimit="1.45" transform="matrix(1,0,0,1,-1327,-342)" stroke-linecap="butt" stroke="rgb(51,51,51)">
<circle fill="none" r="53.7477" clip-path="url(#clipPath2)" cx="1717" cy="406"/>
</g>
<g fill="rgb(50,136,189)" transform="matrix(1,0,0,1,-1327,-342)" stroke="rgb(50,136,189)">
<circle r="53.7477" clip-path="url(#clipPath2)" cx="2383" cy="532" stroke="none"/>
</g>
<g stroke-miterlimit="1.45" font-size="24" font-family="sans-serif" transform="matrix(1,0,0,1,-1327,-342)" stroke-linecap="butt">
<text x="2331.5" xml:space="preserve" y="541.0703" clip-path="url(#clipPath2)" stroke="none">Germany</text>
</g>
<g fill="rgb(51,51,51)" stroke-miterlimit="1.45" transform="matrix(1,0,0,1,-1327,-342)" stroke-linecap="butt" stroke="rgb(51,51,51)">
<circle fill="none" r="53.7477" clip-path="url(#clipPath2)" cx="2383" cy="532"/>
</g>
<g fill="rgb(153,213,148)" transform="matrix(1,0,0,1,-1327,-342)" stroke="rgb(153,213,148)">
<circle r="53.7477" clip-path="url(#clipPath2)" cx="3133" cy="1238" stroke="none"/>
</g>
<g stroke-miterlimit="1.45" font-size="24" font-family="sans-serif" transform="matrix(1,0,0,1,-1327,-342)" stroke-linecap="butt">
<text x="3044.5" xml:space="preserve" y="1247.0703" clip-path="url(#clipPath2)" stroke="none">Constantinople</text>
</g>
<g fill="rgb(51,51,51)" stroke-miterlimit="1.45" transform="matrix(1,0,0,1,-1327,-342)" stroke-linecap="butt" stroke="rgb(51,51,51)">
<circle fill="none" r="53.7477" clip-path="url(#clipPath2)" cx="3133" cy="1238"/>
</g>
<g fill="rgb(153,213,148)" transform="matrix(1,0,0,1,-1327,-342)" stroke="rgb(153,213,148)">
<circle r="53.7477" clip-path="url(#clipPath2)" cx="2885" cy="1049" stroke="none"/>
</g>
<g stroke-miterlimit="1.45" font-size="24" font-family="sans-serif" transform="matrix(1,0,0,1,-1327,-342)" stroke-linecap="butt">
<text x="2843.5" xml:space="preserve" y="1058.0703" clip-path="url(#clipPath2)" stroke="none">Serdica</text>
</g>
<g fill="rgb(51,51,51)" stroke-miterlimit="1.45" transform="matrix(1,0,0,1,-1327,-342)" stroke-linecap="butt" stroke="rgb(51,51,51)">
<circle fill="none" r="53.7477" clip-path="url(#clipPath2)" cx="2885" cy="1049"/>
</g>
<g fill="rgb(230,245,152)" transform="matrix(1,0,0,1,-1327,-342)" stroke="rgb(230,245,152)">
<circle r="53.7477" clip-path="url(#clipPath2)" cx="2902" cy="1251" stroke="none"/>
</g>
<g stroke-miterlimit="1.45" font-size="24" font-family="sans-serif" transform="matrix(1,0,0,1,-1327,-342)" stroke-linecap="butt">
<text x="2827.5" xml:space="preserve" y="1260.0703" clip-path="url(#clipPath2)" stroke="none">Thessalonica</text>
</g>
<g fill="rgb(51,51,51)" stroke-miterlimit="1.45" transform="matrix(1,0,0,1,-1327,-342)" stroke-linecap="butt" stroke="rgb(51,51,51)">
<circle fill="none" r="53.7477" clip-path="url(#clipPath2)" cx="2902" cy="1251"/>
</g>
<g fill="rgb(50,136,189)" transform="matrix(1,0,0,1,-1327,-342)" stroke="rgb(50,136,189)">
<circle r="53.7477" clip-path="url(#clipPath2)" cx="3318" cy="1056" stroke="none"/>
</g>
<g stroke-miterlimit="1.45" font-size="24" font-family="sans-serif" transform="matrix(1,0,0,1,-1327,-342)" stroke-linecap="butt">
<text x="3243.5" xml:space="preserve" y="1065.0703" clip-path="url(#clipPath2)" stroke="none">Chersonesos</text>
</g>
<g fill="rgb(51,51,51)" stroke-miterlimit="1.45" transform="matrix(1,0,0,1,-1327,-342)" stroke-linecap="butt" stroke="rgb(51,51,51)">
<circle fill="none" r="53.7477" clip-path="url(#clipPath2)" cx="3318" cy="1056"/>
</g>
<g fill="rgb(252,141,89)" transform="matrix(1,0,0,1,-1327,-342)" stroke="rgb(252,141,89)">
<circle r="53.7477" clip-path="url(#clipPath2)" cx="2423" cy="1111" stroke="none"/>
</g>
<g stroke-miterlimit="1.45" font-size="24" font-family="sans-serif" transform="matrix(1,0,0,1,-1327,-342)" stroke-linecap="butt">
<text x="2386.5" xml:space="preserve" y="1120.0703" clip-path="url(#clipPath2)" stroke="none">Rimini</text>
</g>
<g fill="rgb(51,51,51)" stroke-miterlimit="1.45" transform="matrix(1,0,0,1,-1327,-342)" stroke-linecap="butt" stroke="rgb(51,51,51)">
<circle fill="none" r="53.7477" clip-path="url(#clipPath2)" cx="2423" cy="1111"/>
</g>
<g fill="rgb(254,224,139)" transform="matrix(1,0,0,1,-1327,-342)" stroke="rgb(254,224,139)">
<circle r="53.7477" clip-path="url(#clipPath2)" cx="2598" cy="1131" stroke="none"/>
</g>
<g stroke-miterlimit="1.45" font-size="24" font-family="sans-serif" transform="matrix(1,0,0,1,-1327,-342)" stroke-linecap="butt">
<text x="2560" xml:space="preserve" y="1140.0703" clip-path="url(#clipPath2)" stroke="none">Salona</text>
</g>
<g fill="rgb(51,51,51)" stroke-miterlimit="1.45" transform="matrix(1,0,0,1,-1327,-342)" stroke-linecap="butt" stroke="rgb(51,51,51)">
<circle fill="none" r="53.7477" clip-path="url(#clipPath2)" cx="2598" cy="1131"/>
</g>
<g fill="rgb(230,245,152)" transform="matrix(1,0,0,1,-1327,-342)" stroke="rgb(230,245,152)">
<circle r="53.7477" clip-path="url(#clipPath2)" cx="2600" cy="930" stroke="none"/>
</g>
<g stroke-miterlimit="1.45" font-size="24" font-family="sans-serif" transform="matrix(1,0,0,1,-1327,-342)" stroke-linecap="butt">
<text x="2495" xml:space="preserve" y="939.0703" clip-path="url(#clipPath2)" stroke="none">A city in Pannonia</text>
</g>
<g fill="rgb(51,51,51)" stroke-miterlimit="1.45" transform="matrix(1,0,0,1,-1327,-342)" stroke-linecap="butt" stroke="rgb(51,51,51)">
<circle fill="none" r="53.7477" clip-path="url(#clipPath2)" cx="2600" cy="930"/>
</g>
<g fill="rgb(50,136,189)" transform="matrix(1,0,0,1,-1327,-342)" stroke="rgb(50,136,189)">
<circle r="53.7477" clip-path="url(#clipPath2)" cx="2891" cy="798" stroke="none"/>
</g>
<g stroke-miterlimit="1.45" font-size="24" font-family="sans-serif" transform="matrix(1,0,0,1,-1327,-342)" stroke-linecap="butt">
<text x="2815" xml:space="preserve" y="807.0703" clip-path="url(#clipPath2)" stroke="none">Samezegusta</text>
</g>
<g fill="rgb(51,51,51)" stroke-miterlimit="1.45" transform="matrix(1,0,0,1,-1327,-342)" stroke-linecap="butt" stroke="rgb(51,51,51)">
<circle fill="none" r="53.7477" clip-path="url(#clipPath2)" cx="2891" cy="798"/>
</g>
</g>
</svg>
